<svg width="114" height="123" fill="none" xmlns="http://www.w3.org/2000/svg"><rect y="8.261" width="114" height="114" rx="23.13" fill="#FFECE1"/><rect width="114" height="114" rx="23.13" fill="#fff"/><path d="M78.831 78.684c8.207 0 13.678-4.739 13.678-10.6 0-5.57-3.957-7.768-9.183-9.38l-8.5-2.735c-2.247-.684-3.273-1.71-3.273-3.224 0-2.003 2.149-3.713 5.52-3.713 3.859 0 7.034 1.905 8.45 4.69l6.205-1.808c-1.857-4.738-7.328-8.793-14.704-8.793-7.132 0-12.31 4.494-12.261 9.819-.05 4.396 3.224 7.279 7.718 8.695l8.744 2.736c3.273 1.075 4.494 2.296 4.494 4.103 0 2.247-2.491 4.299-6.497 4.299-4.934 0-8.402-2.833-9.77-6.4l-6.4 1.955c1.906 5.324 7.426 10.356 15.78 10.356ZM29.8 64.164c-3.75 0-6.8 3.05-6.8 6.8s3.05 6.8 6.8 6.8a6.805 6.805 0 0 0 6.797-6.766h.003v-3.434h6.8v3.467h.007a6.803 6.803 0 0 0 6.793 6.733c3.75 0 6.8-3.05 6.8-6.8s-3.05-6.8-6.8-6.8h-3.4v-6.8h3.4c3.75 0 6.8-3.05 6.8-6.8s-3.05-6.8-6.8-6.8-6.8 3.05-6.8 6.8v3.4h-6.8V50.53h-.003a6.805 6.805 0 0 0-6.797-6.766c-3.75 0-6.8 3.05-6.8 6.8s3.05 6.8 6.8 6.8h3.4v6.8h-3.4Zm3.4 6.8c0 1.908-1.494 3.4-3.4 3.4a3.364 3.364 0 0 1-3.4-3.4c0-1.907 1.494-3.4 3.4-3.4h3.4v3.4Zm17-3.4c1.906 0 3.4 1.493 3.4 3.4 0 1.908-1.494 3.4-3.4 3.4a3.364 3.364 0 0 1-3.4-3.4v-3.4h3.4Zm-3.4-17c0-1.907 1.494-3.4 3.4-3.4s3.4 1.493 3.4 3.4c0 1.908-1.494 3.4-3.4 3.4h-3.4v-3.4Zm-17 3.4a3.364 3.364 0 0 1-3.4-3.4c0-1.907 1.494-3.4 3.4-3.4s3.4 1.493 3.4 3.4v3.4h-3.4Zm6.8 3.4h6.8v6.8h-6.8v-6.8Z" fill="#000"/></svg>