<svg width="114" height="123" fill="none" xmlns="http://www.w3.org/2000/svg"><rect y="8.261" width="114" height="114" rx="23.13" fill="#FFECE1"/><rect width="114" height="114" rx="23.13" fill="#fff"/><path d="M76.797 78.684c9.037 0 14.802-5.52 16.365-10.991l-6.497-1.661c-1.124 3.37-4.788 6.35-9.966 6.35-6.74 0-11.04-5.422-11.04-11.577s4.3-11.382 11.04-11.382c5.178 0 8.842 3.077 9.966 6.4l6.546-1.613c-1.564-5.422-7.328-11.089-16.56-11.089-10.161 0-17.83 7.67-17.83 17.733 0 10.112 7.669 17.83 17.976 17.83ZM27.8 64.164c-3.75 0-6.8 3.05-6.8 6.8s3.05 6.8 6.8 6.8a6.805 6.805 0 0 0 6.797-6.766h.003v-3.434h6.8v3.467h.007a6.803 6.803 0 0 0 6.793 6.733c3.75 0 6.8-3.05 6.8-6.8s-3.05-6.8-6.8-6.8h-3.4v-6.8h3.4c3.75 0 6.8-3.05 6.8-6.8s-3.05-6.8-6.8-6.8-6.8 3.05-6.8 6.8v3.4h-6.8V50.53h-.003a6.805 6.805 0 0 0-6.797-6.766c-3.75 0-6.8 3.05-6.8 6.8s3.05 6.8 6.8 6.8h3.4v6.8h-3.4Zm3.4 6.8c0 1.908-1.494 3.4-3.4 3.4a3.364 3.364 0 0 1-3.4-3.4c0-1.907 1.494-3.4 3.4-3.4h3.4v3.4Zm17-3.4c1.906 0 3.4 1.493 3.4 3.4 0 1.908-1.494 3.4-3.4 3.4a3.364 3.364 0 0 1-3.4-3.4v-3.4h3.4Zm-3.4-17c0-1.907 1.494-3.4 3.4-3.4s3.4 1.493 3.4 3.4c0 1.908-1.494 3.4-3.4 3.4h-3.4v-3.4Zm-17 3.4a3.364 3.364 0 0 1-3.4-3.4c0-1.907 1.494-3.4 3.4-3.4s3.4 1.493 3.4 3.4v3.4h-3.4Zm6.8 3.4h6.8v6.8h-6.8v-6.8Z" fill="#000"/></svg>