<svg width="114" height="123" fill="none" xmlns="http://www.w3.org/2000/svg"><rect y="8.261" width="114" height="114" rx="23.13" fill="#FFECE1"/><rect width="114" height="114" rx="23.13" fill="#fff"/><path d="M87.196 43.805 76.01 59.975l-11.187-16.17h-6.4V78h6.693V55.48L76.01 70.575 86.903 55.48V78h6.692V43.805h-6.399ZM25.8 64.164c-3.75 0-6.8 3.05-6.8 6.8s3.05 6.8 6.8 6.8a6.805 6.805 0 0 0 6.797-6.766h.003v-3.434h6.8v3.467h.007a6.803 6.803 0 0 0 6.793 6.733c3.75 0 6.8-3.05 6.8-6.8s-3.05-6.8-6.8-6.8h-3.4v-6.8h3.4c3.75 0 6.8-3.05 6.8-6.8s-3.05-6.8-6.8-6.8-6.8 3.05-6.8 6.8v3.4h-6.8V50.53h-.003a6.805 6.805 0 0 0-6.797-6.766c-3.75 0-6.8 3.05-6.8 6.8s3.05 6.8 6.8 6.8h3.4v6.8h-3.4Zm3.4 6.8c0 1.908-1.494 3.4-3.4 3.4a3.364 3.364 0 0 1-3.4-3.4c0-1.907 1.494-3.4 3.4-3.4h3.4v3.4Zm17-3.4c1.906 0 3.4 1.493 3.4 3.4 0 1.908-1.494 3.4-3.4 3.4a3.364 3.364 0 0 1-3.4-3.4v-3.4h3.4Zm-3.4-17c0-1.907 1.494-3.4 3.4-3.4s3.4 1.493 3.4 3.4c0 1.908-1.494 3.4-3.4 3.4h-3.4v-3.4Zm-17 3.4a3.364 3.364 0 0 1-3.4-3.4c0-1.907 1.494-3.4 3.4-3.4s3.4 1.493 3.4 3.4v3.4h-3.4Zm6.8 3.4h6.8v6.8h-6.8v-6.8Z" fill="#000"/></svg>