<svg width="1030" height="728" xmlns="http://www.w3.org/2000/svg" xmlns:xlink="http://www.w3.org/1999/xlink"><defs><path d="M25.735 1.067 24.824.013 8.769 13.008c-3.145 2.534-5.329 5.277-6.288 8.272a9.192 9.192 0 0 0 1.923 8.94c2.387 2.74 5.682 3.689 9.125 3.446 3.443-.242 6.827-1.723 10.15-4.41 4.658-3.767 7.243-8.168 7.754-13.203.511-5.035-1.388-10.03-5.698-14.986Zm-7.47 30.186c-1.723 1.395-3.479 2.157-5.268 2.287-1.786.129-3.496-.366-4.742-1.786a4.768 4.768 0 0 1-.998-4.637c.514-1.564 1.646-2.971 3.28-4.288l8.323-6.736.474.543c2.236 2.57 3.22 5.161 2.95 7.77-.268 2.61-1.608 4.893-4.019 6.847Z" id="e"/><path d="M44.02 350.835v11.24h14.984v-11.24M44.02 384.554h14.985V365.82H44.02m-18.731 18.733h14.985v-11.24H25.288m0-3.747h14.985v-18.732H25.288v18.732Z" id="g"/><path d="M25.735 1.067 24.824.013 8.769 13.008c-3.145 2.534-5.329 5.277-6.288 8.272a9.192 9.192 0 0 0 1.923 8.94c2.387 2.74 5.682 3.689 9.125 3.446 3.443-.242 6.827-1.723 10.15-4.41 4.658-3.767 7.243-8.168 7.754-13.203.511-5.035-1.388-10.03-5.698-14.986Zm-7.47 30.186c-1.723 1.395-3.479 2.157-5.268 2.287-1.786.129-3.496-.366-4.742-1.786a4.768 4.768 0 0 1-.998-4.637c.514-1.564 1.646-2.971 3.28-4.288l8.323-6.736.474.543c2.236 2.57 3.22 5.161 2.95 7.77-.268 2.61-1.608 4.893-4.019 6.847Z" id="i"/><path d="M25.735 1.067 24.824.013 8.769 13.008c-3.145 2.534-5.329 5.277-6.288 8.272a9.192 9.192 0 0 0 1.923 8.94c2.387 2.74 5.682 3.689 9.125 3.446 3.443-.242 6.827-1.723 10.15-4.41 4.658-3.767 7.243-8.168 7.754-13.203.511-5.035-1.388-10.03-5.698-14.986Zm-7.47 30.186c-1.723 1.395-3.479 2.157-5.268 2.287-1.786.129-3.496-.366-4.742-1.786a4.768 4.768 0 0 1-.998-4.637c.514-1.564 1.646-2.971 3.28-4.288l8.323-6.736.474.543c2.236 2.57 3.22 5.161 2.95 7.77-.268 2.61-1.608 4.893-4.019 6.847Z" id="j"/><path d="M41.858 451 25 460.196l16.858 9.196 13.794-7.525v10.59h3.065v-12.26m-27.587 6.406v6.13l10.728 5.855 10.728-5.855v-6.13l-10.728 5.855-10.728-5.855Z" id="k"/><linearGradient x1="50%" y1="0%" x2="50%" y2="100%" id="f"><stop stop-color="#FFF" stop-opacity=".5" offset="0%"/><stop stop-opacity=".5" offset="100%"/></linearGradient><linearGradient x1="50%" y1="0%" x2="50%" y2="100%" id="h"><stop stop-color="#FFF" stop-opacity=".5" offset="0%"/><stop stop-opacity=".5" offset="100%"/></linearGradient><linearGradient x1="50%" y1="0%" x2="50%" y2="100%" id="l"><stop stop-color="#FFF" stop-opacity=".5" offset="0%"/><stop stop-opacity=".5" offset="100%"/></linearGradient><filter x="-3.8%" y="-5.1%" width="107.5%" height="110.9%" filterUnits="objectBoundingBox" id="a"><feOffset dy="2" in="SourceAlpha" result="shadowOffsetOuter1"/><feGaussianBlur stdDeviation="12" in="shadowOffsetOuter1" result="shadowBlurOuter1"/><feColorMatrix values="0 0 0 0 0 0 0 0 0 0 0 0 0 0 0.0156862745 0 0 0 0.12 0" in="shadowBlurOuter1"/></filter><filter x="-5.2%" y="-7.4%" width="110.3%" height="115.6%" filterUnits="objectBoundingBox" id="c"><feOffset dy="2" in="SourceAlpha" result="shadowOffsetOuter1"/><feGaussianBlur stdDeviation="12" in="shadowOffsetOuter1" result="shadowBlurOuter1"/><feColorMatrix values="0 0 0 0 0 0 0 0 0 0 0 0 0 0 0.0156862745 0 0 0 0.12 0" in="shadowBlurOuter1"/></filter><rect id="b" x="0" y="0" width="981.531" height="680" rx="24"/><rect id="d" x="0" y="40.275" width="715.544" height="475.813" rx="12"/></defs><g transform="translate(24 22)" fill="none" fill-rule="evenodd"><use fill="#000" filter="url(#a)" xlink:href="#b"/><use fill="#FFF" xlink:href="#b"/><g transform="translate(133.93 94.003)"><rect fill="#FFF" x="21.541" width="363.391" height="7.493" rx="3.747"/><use fill="#000" filter="url(#c)" xlink:href="#d"/><use fill="#FFF" xlink:href="#d"/><path d="M25.288 67.755h33.717v33.719H25.288z"/><g fill-rule="nonzero" transform="translate(25.288 67.755)"><use fill="#1800FA" xlink:href="#e"/><use fill="url(#f)" xlink:href="#e"/></g><g fill="#020202" fill-rule="nonzero"><path d="M109.495 77.154c.2 0 .34.06.42.18.08.12.093.267.04.44l-4.08 13.8c-.094.28-.294.42-.6.42h-2.16c-.334 0-.54-.14-.62-.42l-2.52-8.74c-.027-.12-.064-.183-.11-.19-.047-.006-.09.07-.13.23l-2.54 8.7c-.08.28-.28.42-.6.42h-2.22c-.32 0-.527-.14-.62-.42l-4.08-13.8c-.04-.173-.02-.32.06-.44s.22-.18.42-.18h2.5c.173 0 .296.03.37.09.073.06.123.144.15.25l2.58 9.1c.04.147.08.22.12.22.04 0 .08-.053.12-.16l2.58-9.16a.454.454 0 0 1 .15-.25c.073-.06.196-.09.37-.09h2.14c.173 0 .296.03.37.09.073.06.13.144.17.25l2.62 9.24c.026.094.066.144.12.15.053.007.086-.036.1-.13l2.54-9.26a.432.432 0 0 1 .16-.25c.08-.06.206-.09.38-.09h1.8ZM115.775 90.974c-.414.374-.877.67-1.39.89-.514.22-1.104.33-1.77.33-1.014 0-1.81-.273-2.39-.82-.58-.546-.87-1.246-.87-2.1 0-.746.233-1.4.7-1.96.466-.56 1.133-.996 2-1.31.866-.313 1.9-.483 3.1-.51l.7-.06a.42.42 0 0 0 .22-.06c.066-.04.1-.113.1-.22v-.42c0-.506-.147-.903-.44-1.19-.294-.286-.714-.43-1.26-.43-.4 0-.784.09-1.15.27-.367.18-.677.49-.93.93-.04.094-.087.154-.14.18-.054.027-.154.027-.3 0l-2-.46a.288.288 0 0 1-.17-.13c-.034-.06-.01-.19.07-.39.333-.786.91-1.37 1.73-1.75.82-.38 1.83-.57 3.03-.57 1.106 0 1.986.14 2.64.42.653.28 1.126.67 1.42 1.17.293.5.44 1.084.44 1.75v7.02c0 .16-.027.274-.08.34-.054.067-.154.1-.3.1h-2.06c-.147 0-.25-.053-.31-.16a.976.976 0 0 1-.11-.4l-.04-.44c-.027-.24-.174-.246-.44-.02Zm.4-3.7c0-.226-.1-.34-.3-.34l-.56.04a5.084 5.084 0 0 0-1.04.15c-.347.087-.66.207-.94.36a2.18 2.18 0 0 0-.69.58 1.29 1.29 0 0 0-.27.81c0 .4.14.717.42.95.28.234.666.35 1.16.35.333 0 .63-.053.89-.16.26-.106.483-.233.67-.38.2-.173.36-.346.48-.52a.936.936 0 0 0 .18-.54v-1.3ZM124.035 91.514c0 .174-.04.297-.12.37-.08.074-.22.11-.42.11h-2.12c-.294 0-.44-.14-.44-.42l.06-14.04c0-.253.106-.38.32-.38h2.42c.2 0 .3.12.3.36v14ZM136.415 91.534a.272.272 0 0 1 .02.3c-.054.107-.16.16-.32.16h-2.62a.455.455 0 0 1-.32-.11 1.058 1.058 0 0 1-.22-.31l-2.06-4.12c-.04-.106-.087-.166-.14-.18-.054-.013-.12.02-.2.1l-1.42 1.4a.64.64 0 0 0-.13.19.77.77 0 0 0-.05.31v2.24c0 .174-.04.297-.12.37-.08.074-.214.11-.4.11h-2.12c-.174 0-.29-.033-.35-.1-.06-.066-.09-.173-.09-.32v-14.04c0-.253.106-.38.32-.38h2.46c.2 0 .3.12.3.36v8.2c0 .08.02.134.06.16.04.027.1-.006.18-.1l3.76-4.08c.2-.2.38-.3.54-.3h2.14c.186 0 .3.05.34.15.04.1-.007.217-.14.35l-2.8 2.84c-.08.08-.124.157-.13.23-.007.074.023.184.09.33l3.42 6.24ZM141.375 83.514c-.147 0-.22.08-.22.24v4.82c0 .454.106.777.32.97.213.194.553.29 1.02.29h1.08c.093 0 .166.034.22.1.053.067.08.147.08.24l-.02 1.22c0 .254-.147.414-.44.48-.24.027-.497.05-.77.07-.274.02-.547.034-.82.04-.274.007-.537.01-.79.01-.907 0-1.627-.216-2.16-.65-.534-.433-.8-1.076-.8-1.93v-5.6c0-.2-.087-.3-.26-.3h-1.22c-.254 0-.38-.113-.38-.34v-1.48c0-.2.12-.3.36-.3h1.38c.12 0 .186-.073.2-.22l.28-3.04c.013-.226.113-.34.3-.34h2.18c.213 0 .32.127.32.38v3c0 .134.066.2.2.2h2.1c.24 0 .36.107.36.32v1.48c0 .227-.134.34-.4.34h-2.12ZM145.595 91.994c-.28 0-.42-.133-.42-.4v-14.06c0-.253.106-.38.32-.38h2.4c.2 0 .3.114.3.34v5.12c0 .08.02.13.06.15.04.02.1-.003.18-.07a7.143 7.143 0 0 1 1.17-.88c.366-.213.733-.37 1.1-.47.366-.1.736-.15 1.11-.15 1.013 0 1.793.28 2.34.84.546.56.82 1.347.82 2.36v7.12c0 .32-.16.48-.48.48h-2.22c-.134 0-.23-.03-.29-.09-.06-.06-.09-.163-.09-.31v-6.76c0-.453-.12-.803-.36-1.05-.24-.246-.6-.37-1.08-.37-.28 0-.54.047-.78.14-.24.094-.474.23-.7.41a6.15 6.15 0 0 0-.72.69v6.88c0 .307-.174.46-.52.46h-2.14ZM157.115 91.994c-.147 0-.254-.033-.32-.1-.067-.066-.1-.166-.1-.3v-9.82c0-.253.106-.38.32-.38h2.34c.213 0 .32.114.32.34v1.18c0 .08.03.13.09.15.06.02.123-.01.19-.09.266-.36.57-.673.91-.94.34-.266.69-.473 1.05-.62.36-.146.7-.22 1.02-.22.48 0 .72.114.72.34v2.32c0 .214-.1.3-.3.26a3.907 3.907 0 0 0-.74-.13 8.536 8.536 0 0 0-.66-.03c-.24 0-.49.047-.75.14a2.547 2.547 0 0 0-1.23.96c-.134.2-.2.414-.2.64v5.84c0 .307-.174.46-.52.46h-2.14ZM169.355 92.194c-1.054 0-1.984-.233-2.79-.7a4.962 4.962 0 0 1-1.89-1.93c-.454-.82-.68-1.756-.68-2.81 0-1.106.233-2.076.7-2.91a5.045 5.045 0 0 1 1.92-1.95c.813-.466 1.733-.7 2.76-.7 1.08 0 2.02.237 2.82.71a4.946 4.946 0 0 1 1.87 1.96c.446.834.67 1.79.67 2.87 0 1.067-.227 2.01-.68 2.83a4.962 4.962 0 0 1-1.89 1.93c-.807.467-1.744.7-2.81.7Zm.02-2.04c.493 0 .906-.13 1.24-.39.333-.26.583-.65.75-1.17.166-.52.25-1.153.25-1.9 0-.786-.084-1.436-.25-1.95-.167-.513-.417-.903-.75-1.17-.334-.266-.747-.4-1.24-.4-.48 0-.89.134-1.23.4-.34.267-.597.657-.77 1.17-.174.514-.26 1.164-.26 1.95 0 .76.086 1.397.26 1.91.173.514.43.9.77 1.16.34.26.75.39 1.23.39ZM180.435 89.974c.413 0 .803-.11 1.17-.33.366-.22.703-.503 1.01-.85v-6.94c0-.306.173-.46.52-.46h2.16c.28 0 .42.14.42.42l-.04 9.82c0 .24-.107.36-.32.36h-2.38c-.2 0-.3-.113-.3-.34v-.98c0-.08-.02-.13-.06-.15-.04-.02-.094.004-.16.07-.56.574-1.117.984-1.67 1.23a4.298 4.298 0 0 1-1.77.37c-.587 0-1.11-.126-1.57-.38a2.732 2.732 0 0 1-1.09-1.11c-.267-.486-.4-1.063-.4-1.73v-7.1c0-.32.16-.48.48-.48h2.22c.253 0 .38.14.38.42v6.72c0 .44.123.79.37 1.05.246.26.59.39 1.03.39ZM198.215 80.934c.12 0 .216.034.29.1.073.067.11.18.11.34v1.36c0 .187-.04.317-.12.39-.08.074-.194.097-.34.07a4.55 4.55 0 0 0-.51-.05 1.694 1.694 0 0 0-.43.03c-.36.054-.494.207-.4.46.026.12.063.254.11.4.046.147.07.314.07.5 0 .6-.177 1.15-.53 1.65-.354.5-.89.897-1.61 1.19-.72.294-1.614.44-2.68.44-.534 0-.96.03-1.28.09-.32.06-.55.14-.69.24-.14.1-.21.21-.21.33 0 .174.103.297.31.37.206.074.523.124.95.15l2.86.16c1.36.08 2.353.38 2.98.9.626.52.94 1.187.94 2 0 1.014-.48 1.84-1.44 2.48-.96.64-2.374.96-4.24.96-1.934 0-3.387-.213-4.36-.64-.974-.426-1.46-1.073-1.46-1.94 0-.466.18-.846.54-1.14.36-.293.82-.54 1.38-.74.173-.066.173-.14 0-.22a2.776 2.776 0 0 1-.83-.59c-.22-.233-.33-.53-.33-.89 0-.266.086-.51.26-.73.173-.22.406-.423.7-.61.293-.186.62-.346.98-.48a.267.267 0 0 0 .14-.11c.026-.046-.007-.09-.1-.13-.627-.293-1.107-.666-1.44-1.12-.334-.453-.5-.986-.5-1.6 0-.986.43-1.786 1.29-2.4.86-.613 2.116-.92 3.77-.92.733 0 1.366.08 1.9.24.533.16.966.38 1.3.66a.44.44 0 0 0 .29.09c.1-.006.183-.05.25-.13.173-.213.38-.406.62-.58a3.54 3.54 0 0 1 .76-.42c.266-.106.5-.16.7-.16Zm-6.06 5.36c.706 0 1.223-.163 1.55-.49.326-.326.49-.73.49-1.21 0-.533-.164-.97-.49-1.31-.327-.34-.844-.51-1.55-.51-.654 0-1.16.17-1.52.51-.36.34-.54.777-.54 1.31 0 .48.18.884.54 1.21.36.327.866.49 1.52.49Zm-1.48 5.1a1.822 1.822 0 0 0-.76.12c-.24.094-.44.227-.6.4a.858.858 0 0 0-.24.6c0 .307.113.574.34.8.226.227.593.4 1.1.52.506.12 1.186.18 2.04.18.906 0 1.596-.123 2.07-.37.473-.246.71-.596.71-1.05 0-.28-.13-.52-.39-.72-.26-.2-.657-.313-1.19-.34l-3.08-.14ZM200.195 91.994c-.28 0-.42-.133-.42-.4v-14.06c0-.253.106-.38.32-.38h2.4c.2 0 .3.114.3.34v5.12c0 .08.02.13.06.15.04.02.1-.003.18-.07a7.143 7.143 0 0 1 1.17-.88c.366-.213.733-.37 1.1-.47.366-.1.736-.15 1.11-.15 1.013 0 1.793.28 2.34.84.546.56.82 1.347.82 2.36v7.12c0 .32-.16.48-.48.48h-2.22c-.134 0-.23-.03-.29-.09-.06-.06-.09-.163-.09-.31v-6.76c0-.453-.12-.803-.36-1.05-.24-.246-.6-.37-1.08-.37-.28 0-.54.047-.78.14-.24.094-.474.23-.7.41a6.15 6.15 0 0 0-.72.69v6.88c0 .307-.174.46-.52.46h-2.14ZM214.355 91.514c0 .32-.187.48-.56.48h-2.36c-.294 0-.44-.14-.44-.42v-2.54c0-.24.106-.36.32-.36h2.74c.2 0 .3.114.3.34v2.5Z"/></g><g fill-rule="nonzero"><use fill="#48484A" xlink:href="#g"/><use fill="url(#h)" xlink:href="#g"/></g><g fill="#020202" fill-rule="nonzero"><path d="M96.615 360.034c.773 0 1.496.11 2.17.33a6.2 6.2 0 0 1 1.81.93c.533.4.97.867 1.31 1.4.34.534.563 1.114.67 1.74.053.214.063.354.03.42-.034.067-.11.107-.23.12l-2.7.18c-.12 0-.197-.023-.23-.07a.71.71 0 0 1-.09-.23c-.147-.693-.434-1.263-.86-1.71-.427-.446-1.02-.67-1.78-.67-1 0-1.784.404-2.35 1.21-.567.807-.85 2.11-.85 3.91 0 1.787.27 3.084.81 3.89.54.807 1.35 1.21 2.43 1.21.773 0 1.44-.193 2-.58.56-.386 1.02-1.046 1.38-1.98.053-.12.2-.16.44-.12l1.96.42c.066.014.126.05.18.11.053.06.066.19.04.39-.067.28-.197.607-.39.98-.194.374-.45.757-.77 1.15-.32.394-.717.757-1.19 1.09a6.24 6.24 0 0 1-1.65.81c-.627.207-1.34.31-2.14.31-1.374 0-2.57-.326-3.59-.98-1.02-.653-1.804-1.56-2.35-2.72-.547-1.16-.82-2.506-.82-4.04 0-1.546.273-2.876.82-3.99.546-1.113 1.326-1.976 2.34-2.59 1.013-.613 2.213-.92 3.6-.92ZM109.055 375.274c-1.054 0-1.984-.233-2.79-.7a4.962 4.962 0 0 1-1.89-1.93c-.454-.82-.68-1.756-.68-2.81 0-1.106.233-2.076.7-2.91a5.045 5.045 0 0 1 1.92-1.95c.813-.466 1.733-.7 2.76-.7 1.08 0 2.02.237 2.82.71a4.946 4.946 0 0 1 1.87 1.96c.446.834.67 1.79.67 2.87 0 1.067-.227 2.01-.68 2.83a4.962 4.962 0 0 1-1.89 1.93c-.807.467-1.744.7-2.81.7Zm.02-2.04c.493 0 .906-.13 1.24-.39.333-.26.583-.65.75-1.17.166-.52.25-1.153.25-1.9 0-.786-.084-1.436-.25-1.95-.167-.513-.417-.903-.75-1.17-.334-.266-.747-.4-1.24-.4-.48 0-.89.134-1.23.4-.34.267-.597.657-.77 1.17-.174.514-.26 1.164-.26 1.95 0 .76.086 1.397.26 1.91.173.514.43.9.77 1.16.34.26.75.39 1.23.39ZM118.855 374.594c0 .174-.04.297-.12.37-.08.074-.22.11-.42.11h-2.12c-.294 0-.44-.14-.44-.42l.06-14.04c0-.253.106-.38.32-.38h2.42c.2 0 .3.12.3.36v14ZM123.775 374.594c0 .174-.04.297-.12.37-.08.074-.22.11-.42.11h-2.12c-.294 0-.44-.14-.44-.42l.06-14.04c0-.253.106-.38.32-.38h2.42c.2 0 .3.12.3.36v14ZM128.295 370.674c0 .494.116.93.35 1.31.233.38.546.674.94.88.393.207.836.31 1.33.31.48 0 .923-.103 1.33-.31.406-.206.816-.55 1.23-1.03.053-.053.1-.083.14-.09.04-.006.113.017.22.07l1.44.6c.186.08.206.214.06.4-.427.614-.874 1.1-1.34 1.46-.467.36-.984.617-1.55.77a7.317 7.317 0 0 1-1.91.23c-1.04 0-1.967-.226-2.78-.68a5.053 5.053 0 0 1-1.93-1.89c-.474-.806-.71-1.73-.71-2.77 0-1.146.243-2.143.73-2.99a5.22 5.22 0 0 1 1.95-1.97 5.29 5.29 0 0 1 2.68-.7c1.026 0 1.926.224 2.7.67.773.447 1.383 1.084 1.83 1.91.446.827.67 1.834.67 3.02 0 .147-.014.26-.04.34-.027.08-.127.127-.3.14h-6.8c-.08 0-.14.027-.18.08-.04.054-.06.134-.06.24Zm4.02-2c.146 0 .24-.016.28-.05.04-.033.06-.11.06-.23a2.51 2.51 0 0 0-.23-1.02 2.228 2.228 0 0 0-.68-.87c-.3-.233-.684-.35-1.15-.35-.44 0-.834.107-1.18.32-.347.214-.614.51-.8.89-.187.38-.28.81-.28 1.29l3.98.02ZM141.755 364.274c.866 0 1.603.15 2.21.45a4.48 4.48 0 0 1 1.49 1.15c.386.467.66.947.82 1.44.093.267.013.407-.24.42l-2.1.2c-.147.014-.247-.06-.3-.22a5.045 5.045 0 0 0-.4-.7 1.823 1.823 0 0 0-.54-.52c-.214-.133-.494-.2-.84-.2a1.98 1.98 0 0 0-1.2.38c-.347.254-.617.637-.81 1.15-.194.514-.29 1.164-.29 1.95 0 .8.1 1.46.3 1.98.2.52.483.907.85 1.16.366.254.803.38 1.31.38.586 0 1.05-.153 1.39-.46.34-.306.663-.72.97-1.24.04-.066.08-.106.12-.12.04-.013.113-.006.22.02l1.48.34c.146.04.193.167.14.38a5.25 5.25 0 0 1-.5.98c-.227.36-.524.694-.89 1a4.806 4.806 0 0 1-1.34.77c-.527.207-1.144.31-1.85.31-1.027 0-1.94-.23-2.74-.69-.8-.46-1.43-1.1-1.89-1.92-.46-.82-.69-1.77-.69-2.85 0-1.093.233-2.056.7-2.89a5.088 5.088 0 0 1 1.9-1.95c.8-.466 1.706-.7 2.72-.7ZM151.655 366.594c-.147 0-.22.08-.22.24v4.82c0 .454.106.777.32.97.213.194.553.29 1.02.29h1.08c.093 0 .166.034.22.1.053.067.08.147.08.24l-.02 1.22c0 .254-.147.414-.44.48-.24.027-.497.05-.77.07-.274.02-.547.034-.82.04-.274.007-.537.01-.79.01-.907 0-1.627-.216-2.16-.65-.534-.433-.8-1.076-.8-1.93v-5.6c0-.2-.087-.3-.26-.3h-1.22c-.254 0-.38-.113-.38-.34v-1.48c0-.2.12-.3.36-.3h1.38c.12 0 .186-.073.2-.22l.28-3.04c.013-.226.113-.34.3-.34h2.18c.213 0 .32.127.32.38v3c0 .134.066.2.2.2h2.1c.24 0 .36.107.36.32v1.48c0 .227-.134.34-.4.34h-2.12ZM158.515 374.594c0 .174-.04.297-.12.37-.08.074-.22.11-.42.11h-2.1c-.174 0-.29-.033-.35-.1-.06-.066-.09-.173-.09-.32v-9.8c0-.253.106-.38.32-.38h2.46c.2 0 .3.114.3.34v9.78Zm.04-11.9c0 .334-.18.5-.54.5h-2.16c-.174 0-.29-.04-.35-.12a.558.558 0 0 1-.09-.34v-2.1c0-.266.113-.4.34-.4h2.48c.213 0 .32.127.32.38v2.08ZM165.215 375.274c-1.054 0-1.984-.233-2.79-.7a4.962 4.962 0 0 1-1.89-1.93c-.454-.82-.68-1.756-.68-2.81 0-1.106.233-2.076.7-2.91a5.045 5.045 0 0 1 1.92-1.95c.813-.466 1.733-.7 2.76-.7 1.08 0 2.02.237 2.82.71a4.946 4.946 0 0 1 1.87 1.96c.446.834.67 1.79.67 2.87 0 1.067-.227 2.01-.68 2.83a4.962 4.962 0 0 1-1.89 1.93c-.807.467-1.744.7-2.81.7Zm.02-2.04c.493 0 .906-.13 1.24-.39.333-.26.583-.65.75-1.17.166-.52.25-1.153.25-1.9 0-.786-.084-1.436-.25-1.95-.167-.513-.417-.903-.75-1.17-.334-.266-.747-.4-1.24-.4-.48 0-.89.134-1.23.4-.34.267-.597.657-.77 1.17-.174.514-.26 1.164-.26 1.95 0 .76.086 1.397.26 1.91.173.514.43.9.77 1.16.34.26.75.39 1.23.39ZM172.335 375.074c-.28 0-.42-.133-.42-.4v-9.82c0-.253.106-.38.32-.38h2.42c.2 0 .3.114.3.34v.98c0 .08.02.134.06.16.04.027.1 0 .18-.08.346-.32.693-.6 1.04-.84.346-.24.713-.426 1.1-.56.386-.133.8-.2 1.24-.2.973 0 1.743.287 2.31.86.566.574.85 1.34.85 2.3v7.16c0 .32-.16.48-.48.48h-2.22c-.134 0-.23-.03-.29-.09-.06-.06-.09-.163-.09-.31v-6.76c0-.453-.124-.803-.37-1.05-.247-.246-.61-.37-1.09-.37-.28 0-.54.047-.78.14-.24.094-.474.23-.7.41a6.15 6.15 0 0 0-.72.69v6.88c0 .307-.174.46-.52.46h-2.14ZM189.975 367.234a2.927 2.927 0 0 0-.92-.76c-.387-.213-.86-.32-1.42-.32-.494 0-.91.097-1.25.29-.34.194-.51.457-.51.79 0 .174.066.337.2.49.133.154.44.29.92.41l2.3.56c1.106.254 1.893.667 2.36 1.24.466.574.7 1.214.7 1.92 0 .72-.204 1.334-.61 1.84-.407.507-.97.897-1.69 1.17-.72.274-1.547.41-2.48.41-1.187 0-2.194-.21-3.02-.63-.827-.42-1.407-.943-1.74-1.57a.544.544 0 0 1-.08-.27.2.2 0 0 1 .12-.19l1.36-.7c.133-.066.236-.096.31-.09a.27.27 0 0 1 .19.11c.173.24.38.467.62.68.24.214.54.384.9.51.36.127.813.184 1.36.17.373 0 .71-.043 1.01-.13.3-.086.536-.213.71-.38a.792.792 0 0 0 .26-.59.767.767 0 0 0-.28-.59c-.187-.166-.534-.31-1.04-.43l-2.06-.44c-1-.226-1.757-.583-2.27-1.07-.514-.486-.77-1.123-.77-1.91 0-.68.176-1.28.53-1.8.353-.52.87-.93 1.55-1.23.68-.3 1.493-.45 2.44-.45 1.013 0 1.89.187 2.63.56.74.374 1.27.82 1.59 1.34.053.08.093.164.12.25.026.087-.02.164-.14.23l-1.44.7a.378.378 0 0 1-.25.03.428.428 0 0 1-.21-.15ZM196.695 374.594c0 .32-.187.48-.56.48h-2.36c-.294 0-.44-.14-.44-.42v-2.54c0-.24.106-.36.32-.36h2.74c.2 0 .3.114.3.34v2.5Z"/></g><path stroke="#E3E3E5" stroke-linecap="square" d="M.937 130.661h714.607"/><path d="M25.288 254.488h33.717v33.719H25.288z"/><g fill-rule="nonzero" transform="translate(25.288 254.488)"><use fill="#FF193B" xlink:href="#i"/><use fill="url(#f)" xlink:href="#i"/></g><path d="M25.288 158.14h33.717v33.72H25.288z"/><g fill-rule="nonzero" transform="translate(25.288 158.14)"><use fill="#7506C9" xlink:href="#j"/><use fill="url(#f)" xlink:href="#j"/></g><g fill="#020202" fill-rule="nonzero"><path d="M93.555 263.887c.213 0 .32.12.32.36v14c0 .174-.044.297-.13.37-.087.074-.224.11-.41.11h-2.52c-.174 0-.29-.033-.35-.1-.06-.066-.09-.173-.09-.32v-14.04c0-.253.106-.38.32-.38h2.86ZM96.395 278.727c-.28 0-.42-.133-.42-.4v-9.82c0-.253.106-.38.32-.38h2.42c.2 0 .3.114.3.34v.98c0 .08.02.134.06.16.04.027.1 0 .18-.08.346-.32.693-.6 1.04-.84.346-.24.713-.426 1.1-.56.386-.133.8-.2 1.24-.2.973 0 1.743.287 2.31.86.566.574.85 1.34.85 2.3v7.16c0 .32-.16.48-.48.48h-2.22c-.134 0-.23-.03-.29-.09-.06-.06-.09-.163-.09-.31v-6.76c0-.453-.124-.803-.37-1.05-.247-.246-.61-.37-1.09-.37-.28 0-.54.047-.78.14-.24.094-.474.23-.7.41a6.15 6.15 0 0 0-.72.69v6.88c0 .307-.174.46-.52.46h-2.14ZM114.035 270.887a2.927 2.927 0 0 0-.92-.76c-.387-.213-.86-.32-1.42-.32-.494 0-.91.097-1.25.29-.34.194-.51.457-.51.79 0 .174.066.337.2.49.133.154.44.29.92.41l2.3.56c1.106.254 1.893.667 2.36 1.24.466.574.7 1.214.7 1.92 0 .72-.204 1.334-.61 1.84-.407.507-.97.897-1.69 1.17-.72.274-1.547.41-2.48.41-1.187 0-2.194-.21-3.02-.63-.827-.42-1.407-.943-1.74-1.57a.544.544 0 0 1-.08-.27.2.2 0 0 1 .12-.19l1.36-.7c.133-.066.236-.096.31-.09a.27.27 0 0 1 .19.11c.173.24.38.467.62.68.24.214.54.384.9.51.36.127.813.184 1.36.17.373 0 .71-.043 1.01-.13.3-.086.536-.213.71-.38a.792.792 0 0 0 .26-.59.767.767 0 0 0-.28-.59c-.187-.166-.534-.31-1.04-.43l-2.06-.44c-1-.226-1.757-.583-2.27-1.07-.514-.486-.77-1.123-.77-1.91 0-.68.176-1.28.53-1.8.353-.52.87-.93 1.55-1.23.68-.3 1.493-.45 2.44-.45 1.013 0 1.89.187 2.63.56.74.374 1.27.82 1.59 1.34.053.08.093.164.12.25.026.087-.02.164-.14.23l-1.44.7a.378.378 0 0 1-.25.03.428.428 0 0 1-.21-.15ZM121.815 270.247c-.147 0-.22.08-.22.24v4.82c0 .454.106.777.32.97.213.194.553.29 1.02.29h1.08c.093 0 .166.034.22.1.053.067.08.147.08.24l-.02 1.22c0 .254-.147.414-.44.48-.24.027-.497.05-.77.07-.274.02-.547.034-.82.04-.274.007-.537.01-.79.01-.907 0-1.627-.216-2.16-.65-.534-.433-.8-1.076-.8-1.93v-5.6c0-.2-.087-.3-.26-.3h-1.22c-.254 0-.38-.113-.38-.34v-1.48c0-.2.12-.3.36-.3h1.38c.12 0 .186-.073.2-.22l.28-3.04c.013-.226.113-.34.3-.34h2.18c.213 0 .32.127.32.38v3c0 .134.066.2.2.2h2.1c.24 0 .36.107.36.32v1.48c0 .227-.134.34-.4.34h-2.12ZM131.295 277.707c-.414.374-.877.67-1.39.89-.514.22-1.104.33-1.77.33-1.014 0-1.81-.273-2.39-.82-.58-.546-.87-1.246-.87-2.1 0-.746.233-1.4.7-1.96.466-.56 1.133-.996 2-1.31.866-.313 1.9-.483 3.1-.51l.7-.06a.42.42 0 0 0 .22-.06c.066-.04.1-.113.1-.22v-.42c0-.506-.147-.903-.44-1.19-.294-.286-.714-.43-1.26-.43-.4 0-.784.09-1.15.27-.367.18-.677.49-.93.93-.04.094-.087.154-.14.18-.054.027-.154.027-.3 0l-2-.46a.288.288 0 0 1-.17-.13c-.034-.06-.01-.19.07-.39.333-.786.91-1.37 1.73-1.75.82-.38 1.83-.57 3.03-.57 1.106 0 1.986.14 2.64.42.653.28 1.126.67 1.42 1.17.293.5.44 1.084.44 1.75v7.02c0 .16-.027.274-.08.34-.054.067-.154.1-.3.1h-2.06c-.147 0-.25-.053-.31-.16a.976.976 0 0 1-.11-.4l-.04-.44c-.027-.24-.174-.246-.44-.02Zm.4-3.7c0-.226-.1-.34-.3-.34l-.56.04a5.084 5.084 0 0 0-1.04.15c-.347.087-.66.207-.94.36a2.18 2.18 0 0 0-.69.58 1.29 1.29 0 0 0-.27.81c0 .4.14.717.42.95.28.234.666.35 1.16.35.333 0 .63-.053.89-.16.26-.106.483-.233.67-.38.2-.173.36-.346.48-.52a.936.936 0 0 0 .18-.54v-1.3ZM136.875 278.727c-.28 0-.42-.133-.42-.4v-9.82c0-.253.106-.38.32-.38h2.42c.2 0 .3.114.3.34v.98c0 .08.02.134.06.16.04.027.1 0 .18-.08.346-.32.693-.6 1.04-.84.346-.24.713-.426 1.1-.56.386-.133.8-.2 1.24-.2.973 0 1.743.287 2.31.86.566.574.85 1.34.85 2.3v7.16c0 .32-.16.48-.48.48h-2.22c-.134 0-.23-.03-.29-.09-.06-.06-.09-.163-.09-.31v-6.76c0-.453-.124-.803-.37-1.05-.247-.246-.61-.37-1.09-.37-.28 0-.54.047-.78.14-.24.094-.474.23-.7.41a6.15 6.15 0 0 0-.72.69v6.88c0 .307-.174.46-.52.46h-2.14ZM152.095 270.247c-.147 0-.22.08-.22.24v4.82c0 .454.106.777.32.97.213.194.553.29 1.02.29h1.08c.093 0 .166.034.22.1.053.067.08.147.08.24l-.02 1.22c0 .254-.147.414-.44.48-.24.027-.497.05-.77.07-.274.02-.547.034-.82.04-.274.007-.537.01-.79.01-.907 0-1.627-.216-2.16-.65-.534-.433-.8-1.076-.8-1.93v-5.6c0-.2-.087-.3-.26-.3h-1.22c-.254 0-.38-.113-.38-.34v-1.48c0-.2.12-.3.36-.3h1.38c.12 0 .186-.073.2-.22l.28-3.04c.013-.226.113-.34.3-.34h2.18c.213 0 .32.127.32.38v3c0 .134.066.2.2.2h2.1c.24 0 .36.107.36.32v1.48c0 .227-.134.34-.4.34h-2.12ZM158.935 278.247c0 .32-.187.48-.56.48h-2.36c-.294 0-.44-.14-.44-.42v-2.54c0-.24.106-.36.32-.36h2.74c.2 0 .3.114.3.34v2.5Z"/></g><path stroke="#E3E3E5" stroke-linecap="square" d="M.937 221.515h714.607M.937 319.862h714.607M.937 418.209h714.607"/><g fill="#020202" fill-rule="nonzero"><path d="M102.515 172.16c0 .987-.234 1.817-.7 2.49-.467.673-1.104 1.183-1.91 1.53-.807.347-1.744.52-2.81.52h-3c-.147 0-.22.073-.22.22v5c0 .307-.174.46-.52.46h-2.56c-.16 0-.27-.033-.33-.1s-.09-.167-.09-.3v-14.06c0-.253.106-.38.32-.38h6c1.066 0 2.043.167 2.93.5.886.333 1.59.84 2.11 1.52.52.68.78 1.547.78 2.6Zm-3.6-.06c0-.467-.1-.85-.3-1.15-.2-.3-.487-.523-.86-.67a3.48 3.48 0 0 0-1.28-.22h-2.22c-.254 0-.38.113-.38.34v3.42c0 .253.093.38.28.38h2.46c.706 0 1.266-.187 1.68-.56.413-.373.62-.887.62-1.54ZM107.055 181.9c0 .173-.04.297-.12.37-.08.073-.22.11-.42.11h-2.1c-.174 0-.29-.033-.35-.1s-.09-.173-.09-.32v-9.8c0-.253.106-.38.32-.38h2.46c.2 0 .3.113.3.34v9.78Zm.04-11.9c0 .333-.18.5-.54.5h-2.16c-.174 0-.29-.04-.35-.12a.558.558 0 0 1-.09-.34v-2.1c0-.267.113-.4.34-.4h2.48c.213 0 .32.127.32.38V170ZM113.335 173.9c-.147 0-.22.08-.22.24v4.82c0 .453.106.777.32.97.213.193.553.29 1.02.29h1.08c.093 0 .166.033.22.1.053.067.08.147.08.24l-.02 1.22c0 .253-.147.413-.44.48-.24.027-.497.05-.77.07-.274.02-.547.033-.82.04-.274.007-.537.01-.79.01-.907 0-1.627-.217-2.16-.65-.534-.433-.8-1.077-.8-1.93v-5.6c0-.2-.087-.3-.26-.3h-1.22c-.254 0-.38-.113-.38-.34v-1.48c0-.2.12-.3.36-.3h1.38c.12 0 .186-.073.2-.22l.28-3.04c.013-.227.113-.34.3-.34h2.18c.213 0 .32.127.32.38v3c0 .133.066.2.2.2h2.1c.24 0 .36.107.36.32v1.48c0 .227-.134.34-.4.34h-2.12ZM121.615 171.58c.866 0 1.603.15 2.21.45a4.48 4.48 0 0 1 1.49 1.15c.386.467.66.947.82 1.44.093.267.013.407-.24.42l-2.1.2c-.147.013-.247-.06-.3-.22a5.045 5.045 0 0 0-.4-.7 1.823 1.823 0 0 0-.54-.52c-.214-.133-.494-.2-.84-.2a1.98 1.98 0 0 0-1.2.38c-.347.253-.617.637-.81 1.15-.194.513-.29 1.163-.29 1.95 0 .8.1 1.46.3 1.98.2.52.483.907.85 1.16.366.253.803.38 1.31.38.586 0 1.05-.153 1.39-.46.34-.307.663-.72.97-1.24.04-.067.08-.107.12-.12.04-.013.113-.007.22.02l1.48.34c.146.04.193.167.14.38a5.25 5.25 0 0 1-.5.98c-.227.36-.524.693-.89 1a4.806 4.806 0 0 1-1.34.77c-.527.207-1.144.31-1.85.31-1.027 0-1.94-.23-2.74-.69-.8-.46-1.43-1.1-1.89-1.92-.46-.82-.69-1.77-.69-2.85 0-1.093.233-2.057.7-2.89a5.088 5.088 0 0 1 1.9-1.95c.8-.467 1.706-.7 2.72-.7ZM127.835 182.38c-.28 0-.42-.133-.42-.4v-14.06c0-.253.106-.38.32-.38h2.4c.2 0 .3.113.3.34V173c0 .08.02.13.06.15.04.02.1-.003.18-.07a7.143 7.143 0 0 1 1.17-.88c.366-.213.733-.37 1.1-.47.366-.1.736-.15 1.11-.15 1.013 0 1.793.28 2.34.84.546.56.82 1.347.82 2.36v7.12c0 .32-.16.48-.48.48h-2.22c-.134 0-.23-.03-.29-.09-.06-.06-.09-.163-.09-.31v-6.76c0-.453-.12-.803-.36-1.05s-.6-.37-1.08-.37c-.28 0-.54.047-.78.14-.24.093-.474.23-.7.41a6.15 6.15 0 0 0-.72.69v6.88c0 .307-.174.46-.52.46h-2.14ZM141.995 181.9c0 .32-.187.48-.56.48h-2.36c-.294 0-.44-.14-.44-.42v-2.54c0-.24.106-.36.32-.36h2.74c.2 0 .3.113.3.34v2.5Z"/></g><g fill-rule="nonzero"><use fill="#188114" xlink:href="#k"/><use fill="url(#l)" xlink:href="#k"/></g><g fill="#020202" fill-rule="nonzero"><path d="M89.96 471a.27.27 0 0 1-.26-.16c-.053-.107-.053-.247 0-.42l4.98-13.86a.773.773 0 0 1 .18-.31c.067-.06.18-.09.34-.09h3c.293 0 .493.147.6.44l4.94 13.86c.04.107.04.223 0 .35-.04.127-.12.19-.24.19h-2.94c-.2 0-.327-.093-.38-.28l-1.04-2.92a.354.354 0 0 0-.07-.16c-.033-.04-.097-.06-.19-.06H94c-.133 0-.22.067-.26.2l-1.06 2.96a.39.39 0 0 1-.13.19c-.06.047-.157.07-.29.07h-2.3Zm8.1-6.08c.187 0 .247-.113.18-.34l-1.68-4.68c-.04-.08-.083-.12-.13-.12s-.09.047-.13.14l-1.7 4.66c-.093.227-.033.34.18.34h3.28ZM109.24 460.2c.867 0 1.603.15 2.21.45a4.48 4.48 0 0 1 1.49 1.15c.387.467.66.947.82 1.44.093.267.013.407-.24.42l-2.1.2c-.147.013-.247-.06-.3-.22a5.045 5.045 0 0 0-.4-.7 1.823 1.823 0 0 0-.54-.52c-.213-.133-.493-.2-.84-.2a1.98 1.98 0 0 0-1.2.38c-.347.253-.617.637-.81 1.15-.193.513-.29 1.163-.29 1.95 0 .8.1 1.46.3 1.98.2.52.483.907.85 1.16.367.253.803.38 1.31.38.587 0 1.05-.153 1.39-.46.34-.307.663-.72.97-1.24.04-.067.08-.107.12-.12.04-.013.113-.007.22.02l1.48.34c.147.04.193.167.14.38a5.25 5.25 0 0 1-.5.98c-.227.36-.523.693-.89 1a4.806 4.806 0 0 1-1.34.77c-.527.207-1.143.31-1.85.31-1.027 0-1.94-.23-2.74-.69-.8-.46-1.43-1.1-1.89-1.92-.46-.82-.69-1.77-.69-2.85 0-1.093.233-2.057.7-2.89a5.088 5.088 0 0 1 1.9-1.95c.8-.467 1.707-.7 2.72-.7ZM120.72 469.98c-.413.373-.877.67-1.39.89-.513.22-1.103.33-1.77.33-1.013 0-1.81-.273-2.39-.82-.58-.547-.87-1.247-.87-2.1 0-.747.233-1.4.7-1.96.467-.56 1.133-.997 2-1.31.867-.313 1.9-.483 3.1-.51l.7-.06a.42.42 0 0 0 .22-.06c.067-.04.1-.113.1-.22v-.42c0-.507-.147-.903-.44-1.19-.293-.287-.713-.43-1.26-.43-.4 0-.783.09-1.15.27-.367.18-.677.49-.93.93-.04.093-.087.153-.14.18-.053.027-.153.027-.3 0l-2-.46a.288.288 0 0 1-.17-.13c-.033-.06-.01-.19.07-.39.333-.787.91-1.37 1.73-1.75.82-.38 1.83-.57 3.03-.57 1.107 0 1.987.14 2.64.42.653.28 1.127.67 1.42 1.17.293.5.44 1.083.44 1.75v7.02c0 .16-.027.273-.08.34-.053.067-.153.1-.3.1h-2.06c-.147 0-.25-.053-.31-.16a.976.976 0 0 1-.11-.4l-.04-.44c-.027-.24-.173-.247-.44-.02Zm.4-3.7c0-.227-.1-.34-.3-.34l-.56.04a5.084 5.084 0 0 0-1.04.15c-.347.087-.66.207-.94.36a2.18 2.18 0 0 0-.69.58 1.29 1.29 0 0 0-.27.81c0 .4.14.717.42.95.28.233.667.35 1.16.35.333 0 .63-.053.89-.16.26-.107.483-.233.67-.38.2-.173.36-.347.48-.52a.936.936 0 0 0 .18-.54v-1.3ZM133.24 471a.498.498 0 0 1-.29-.09c-.087-.06-.13-.163-.13-.31v-.56c0-.093-.027-.147-.08-.16-.053-.013-.12.013-.2.08-.213.2-.453.397-.72.59-.267.193-.58.35-.94.47s-.78.18-1.26.18c-.813 0-1.533-.2-2.16-.6-.627-.4-1.12-1.003-1.48-1.81-.36-.807-.54-1.81-.54-3.01 0-1.12.197-2.097.59-2.93.393-.833.923-1.483 1.59-1.95.667-.467 1.4-.7 2.2-.7.533 0 1.007.087 1.42.26a4.1 4.1 0 0 1 1.2.8c.107.08.19.11.25.09.06-.02.09-.103.09-.25v-4.58c0-.24.107-.36.32-.36h2.44c.213 0 .32.127.32.38v14.04c0 .147-.033.253-.1.32s-.187.1-.36.1h-2.16Zm-.46-7.84a3.607 3.607 0 0 0-.89-.73c-.3-.167-.643-.25-1.03-.25-.44 0-.837.123-1.19.37s-.627.63-.82 1.15c-.193.52-.29 1.2-.29 2.04 0 .853.097 1.54.29 2.06.193.52.46.897.8 1.13.34.233.73.35 1.17.35.373 0 .707-.087 1-.26.293-.173.527-.393.7-.66.173-.267.26-.547.26-.84v-4.36ZM140.36 466.6c0 .493.117.93.35 1.31.233.38.547.673.94.88.393.207.837.31 1.33.31.48 0 .923-.103 1.33-.31.407-.207.817-.55 1.23-1.03.053-.053.1-.083.14-.09.04-.007.113.017.22.07l1.44.6c.187.08.207.213.06.4-.427.613-.873 1.1-1.34 1.46-.467.36-.983.617-1.55.77a7.317 7.317 0 0 1-1.91.23c-1.04 0-1.967-.227-2.78-.68a5.053 5.053 0 0 1-1.93-1.89c-.473-.807-.71-1.73-.71-2.77 0-1.147.243-2.143.73-2.99a5.22 5.22 0 0 1 1.95-1.97 5.29 5.29 0 0 1 2.68-.7c1.027 0 1.927.223 2.7.67.773.447 1.383 1.083 1.83 1.91.447.827.67 1.833.67 3.02 0 .147-.013.26-.04.34-.027.08-.127.127-.3.14h-6.8c-.08 0-.14.027-.18.08-.04.053-.06.133-.06.24Zm4.02-2c.147 0 .24-.017.28-.05.04-.033.06-.11.06-.23a2.51 2.51 0 0 0-.23-1.02 2.228 2.228 0 0 0-.68-.87c-.3-.233-.683-.35-1.15-.35-.44 0-.833.107-1.18.32-.347.213-.613.51-.8.89-.187.38-.28.81-.28 1.29l3.98.02ZM149.4 471c-.28 0-.42-.133-.42-.4v-9.82c0-.253.107-.38.32-.38h2.4c.2 0 .3.113.3.34v.98c0 .08.023.133.07.16.047.027.103 0 .17-.08.347-.32.693-.6 1.04-.84.347-.24.713-.43 1.1-.57.387-.14.787-.21 1.2-.21.72 0 1.323.17 1.81.51.487.34.83.79 1.03 1.35.027.053.063.077.11.07.047-.007.097-.037.15-.09.32-.347.67-.657 1.05-.93a5.18 5.18 0 0 1 1.21-.65c.427-.16.847-.24 1.26-.24.933 0 1.677.287 2.23.86.553.573.83 1.36.83 2.36v7.1c0 .32-.16.48-.48.48h-2.22c-.133 0-.23-.03-.29-.09-.06-.06-.09-.163-.09-.31v-6.76c0-.453-.12-.803-.36-1.05s-.58-.37-1.02-.37c-.253 0-.5.053-.74.16-.24.107-.46.233-.66.38s-.373.307-.52.48a.681.681 0 0 0-.18.27.984.984 0 0 0-.04.29v6.52c0 .32-.16.48-.48.48h-2.2c-.133 0-.23-.03-.29-.09-.06-.06-.09-.163-.09-.31v-6.76c0-.453-.12-.803-.36-1.05s-.587-.37-1.04-.37c-.4 0-.767.103-1.1.31-.333.207-.68.517-1.04.93v6.88c0 .307-.173.46-.52.46h-2.14ZM167.6 474.3c-.413 0-.713-.02-.9-.06-.187-.04-.28-.147-.28-.32v-1.54c0-.08.04-.153.12-.22.08-.067.233-.1.46-.1h1.36c.253 0 .483-.06.69-.18a1.608 1.608 0 0 0 .77-1c.053-.2.04-.38-.04-.54l-3.84-9.46a.34.34 0 0 1 .01-.33c.06-.1.163-.15.31-.15h2.52a.432.432 0 0 1 .44.34l2.22 5.96c.04.12.093.183.16.19.067.007.127-.063.18-.21l2.2-5.96a.92.92 0 0 1 .18-.23.374.374 0 0 1 .26-.09h1.72c.133 0 .227.05.28.15a.32.32 0 0 1 0 .31l-4.1 10.14c-.28.693-.57 1.257-.87 1.69-.3.433-.63.767-.99 1a3.39 3.39 0 0 1-1.23.48c-.46.087-1.003.13-1.63.13ZM179.12 470.52c0 .32-.187.48-.56.48h-2.36c-.293 0-.44-.14-.44-.42v-2.54c0-.24.107-.36.32-.36h2.74c.2 0 .3.113.3.34v2.5Z"/></g></g><g fill="#B4B4B6" fill-rule="nonzero"><path d="M26.437 148.106v-4.143h2.762v4.143h3.453v-5.525h2.072l-6.906-6.215-6.905 6.215h2.071v5.525zM22.233 167.918h6.604v1.32h-6.604v6.604h-1.32v-6.604c0-.733.587-1.32 1.32-1.32m2.642 2.641h6.603v1.32h-6.603v6.605h-1.321v-6.604c0-.733.588-1.32 1.32-1.32m2.642 2.64h5.283c.733 0 1.32.588 1.32 1.321v5.284c0 .733-.587 1.32-1.32 1.32h-5.283c-.733 0-1.32-.587-1.32-1.32v-5.284c0-.733.587-1.32 1.32-1.32m1.32 1.32v5.284l3.963-2.642-3.962-2.642ZM28.168 200.937v3.913h5.218v-3.913m-5.218 11.74h5.218v-6.522h-5.218m-6.522 6.522h5.218v-3.914h-5.218m0-1.304h5.218v-6.522h-5.218v6.522ZM27.516 231.755l-8.07 4.402 8.07 4.403 6.603-3.603v5.07h1.468v-5.87m-13.207 3.067v2.935l5.136 2.803 5.136-2.803v-2.935l-5.136 2.803-5.136-2.803ZM27.516 264.04a2.935 2.935 0 1 1 0 5.87 2.935 2.935 0 0 1 0-5.87m0 7.337c3.243 0 5.87 1.314 5.87 2.935v1.468h-11.74v-1.468c0-1.621 2.627-2.935 5.87-2.935ZM27.516 295.591a2.568 2.568 0 1 1 0 5.136 2.568 2.568 0 0 1 0-5.136m-5.136 1.835c.41 0 .792.11 1.123.308a4.062 4.062 0 0 0 .829 2.906 2.199 2.199 0 0 1-4.153-1.013c0-1.216.985-2.201 2.201-2.201m10.272 0a2.201 2.201 0 0 1 0 4.402 2.199 2.199 0 0 1-1.952-1.188c.631-.815.94-1.857.83-2.906.33-.198.711-.308 1.122-.308m-9.905 7.52c0-1.518 2.135-2.75 4.769-2.75 2.634 0 4.77 1.232 4.77 2.75v1.285h-9.54v-1.284m-4.035 1.284v-1.1c0-1.02 1.387-1.88 3.265-2.129-.432.5-.697 1.189-.697 1.945v1.284h-2.568m17.61 0h-2.569v-1.284c0-.756-.264-1.446-.697-1.945 1.879.25 3.265 1.108 3.265 2.128v1.1ZM32.547 332.699h-.943v-2.516c0-.698-.566-1.258-1.258-1.258H27.83v-.944a1.572 1.572 0 1 0-3.144 0v.944H22.17c-.694 0-1.257.563-1.257 1.258v2.39h.943c.943 0 1.698.754 1.698 1.698 0 .943-.755 1.698-1.698 1.698h-.943v2.39c0 .695.563 1.258 1.257 1.258h2.39v-.944c0-.943.755-1.698 1.698-1.698.944 0 1.698.755 1.698 1.698v.944h2.39c.695 0 1.258-.563 1.258-1.258v-2.516h.943a1.572 1.572 0 0 0 0-3.144Z"/></g><ellipse fill="#E3E3E5" cx="22.478" cy="23.416" rx="5.619" ry="5.62"/><ellipse fill="#E3E3E5" cx="39.336" cy="23.416" rx="5.619" ry="5.62"/><ellipse fill="#E3E3E5" cx="56.195" cy="23.416" rx="5.619" ry="5.62"/></g></svg>