<svg width="46" height="43" xmlns="http://www.w3.org/2000/svg" xmlns:xlink="http://www.w3.org/1999/xlink"><defs><linearGradient x1="50%" y1="0%" x2="50%" y2="100%" id="b"><stop stop-color="#FFF" stop-opacity=".5" offset="0%"/><stop stop-opacity=".5" offset="100%"/></linearGradient><path d="m38.808 9.274-5.882-7.6L41.363 0l1.674 8.415-4.229.86m-6.311 1.223L26.614 2.92l-4.229.837 5.904 7.578 4.208-.837m-31.58 6.29v21.468a4.292 4.292 0 0 0 4.294 4.294h15.027v-6.162l19.6-19.6H.919m21.06-4.186L16.094 4.98l-4.23.88 5.905 7.578 4.207-.837M5.554 7.127l-2.104.408A4.31 4.31 0 0 0 .08 12.58l.837 4.208 10.52-2.082-5.883-7.579M24.532 38.17v4.38h4.38l13.16-13.139-4.38-4.4-13.16 13.16m21.146-13.934-2.834-2.833c-.43-.43-1.138-.43-1.545 0l-2.104 2.103 4.38 4.38 2.103-2.104c.43-.408.43-1.116 0-1.546Z" id="a"/></defs><g fill-rule="nonzero" fill="none"><use fill="#FF193B" xlink:href="#a"/><use fill="url(#b)" xlink:href="#a"/></g></svg>