<svg width="36" height="36" xmlns="http://www.w3.org/2000/svg" xmlns:xlink="http://www.w3.org/1999/xlink"><defs><linearGradient x1="50%" y1="0%" x2="50%" y2="100%" id="b"><stop stop-color="#FFF" stop-opacity=".5" offset="0%"/><stop stop-opacity=".5" offset="100%"/></linearGradient><path d="M27.478 1.14 26.505.013 9.363 13.888c-3.358 2.706-5.69 5.634-6.714 8.831a9.813 9.813 0 0 0 2.053 9.546c2.549 2.925 6.067 3.938 9.743 3.679 3.676-.259 7.29-1.84 10.837-4.708 4.974-4.022 7.734-8.721 8.28-14.097.545-5.375-1.483-10.709-6.084-16Zm-7.976 32.227c-1.84 1.49-3.714 2.303-5.625 2.442-1.907.138-3.732-.391-5.063-1.907a5.09 5.09 0 0 1-1.066-4.95c.549-1.67 1.758-3.173 3.502-4.579l8.887-7.191.507.579c2.387 2.745 3.437 5.51 3.15 8.297-.287 2.786-1.718 5.223-4.292 7.31Z" id="a"/></defs><g fill="none" fill-rule="evenodd"><path d="M0 0h36v36H0z"/><g fill-rule="nonzero"><use fill="#1800FA" xlink:href="#a"/><use fill="url(#b)" xlink:href="#a"/></g></g></svg>