<svg xmlns="http://www.w3.org/2000/svg" width="178" height="100" fill="none"><path d="M36.155 46.233a78.665 78.665 0 0 0-.055 3.255c0 1.312.018 2.406.055 3.281.036.857.11 1.54.22 2.051.128.51.302.866.522 1.067.239.2.55.3.935.3s.688-.1.908-.3c.238-.2.412-.556.522-1.067.129-.51.211-1.194.248-2.05.037-.876.055-1.97.055-3.282 0-1.313-.018-2.398-.055-3.255-.037-.875-.12-1.567-.248-2.078-.11-.51-.284-.866-.522-1.066-.22-.2-.523-.301-.908-.301s-.696.1-.935.3c-.22.201-.394.557-.522 1.067-.11.51-.184 1.203-.22 2.078z" fill="#938E8A"/><path fill-rule="evenodd" clip-rule="evenodd" d="M37.13 29.173c-6.632.141-11.903 5.583-11.796 12.177l.13 8.102-.13 8.103c-.107 6.594 5.164 12.036 11.795 12.176l8.15.174 8.149-.174c6.63-.14 11.902-5.582 11.795-12.176l-.13-8.103.13-8.102c.107-6.594-5.164-12.036-11.795-12.177L45.278 29l-8.149.173zm8.43 30.597l-3.08 2.652-2.805-3.008c-.22.037-.44.064-.66.082-.202.037-.431.055-.688.055h-.495c-1.301 0-2.401-.173-3.3-.52a4.576 4.576 0 0 1-2.172-1.722c-.55-.82-.944-1.869-1.183-3.145-.238-1.294-.357-2.853-.357-4.676s.119-3.373.357-4.65c.239-1.294.633-2.342 1.183-3.144a4.688 4.688 0 0 1 2.172-1.778c.899-.382 1.999-.574 3.3-.574 1.302 0 2.402.192 3.3.575a4.689 4.689 0 0 1 2.173 1.777c.55.802.944 1.85 1.182 3.145.239 1.276.358 2.826.358 4.649 0 1.877-.128 3.464-.385 4.758s-.678 2.352-1.265 3.172l2.365 2.352zm8.681-13.017v-1.094c0-1.112-.11-1.868-.33-2.27-.22-.4-.578-.601-1.073-.601-.385 0-.696.1-.934.3-.22.201-.395.557-.523 1.067-.11.51-.183 1.203-.22 2.078a78.665 78.665 0 0 0-.055 3.255c0 1.312.018 2.406.055 3.281.037.857.11 1.54.22 2.051.128.51.303.866.523 1.067.238.2.55.3.934.3.312 0 .569-.072.77-.218.202-.164.358-.429.468-.793.11-.365.183-.848.22-1.45.055-.62.083-1.394.083-2.324h4.95v1.45c0 1.367-.184 2.488-.55 3.363-.367.875-.853 1.568-1.458 2.078a4.814 4.814 0 0 1-2.09.985 10.35 10.35 0 0 1-2.393.273c-1.43 0-2.603-.173-3.52-.52a4.265 4.265 0 0 1-2.145-1.722c-.513-.82-.87-1.869-1.072-3.145-.184-1.294-.275-2.853-.275-4.676 0-1.86.11-3.437.33-4.731.238-1.295.632-2.343 1.182-3.145a4.575 4.575 0 0 1 2.173-1.723c.898-.364 2.007-.547 3.327-.547 1.155 0 2.136.146 2.943.438.807.291 1.458.71 1.953 1.258.513.528.88 1.176 1.1 1.941.238.748.357 1.596.357 2.544v1.23h-4.95zM89.256 42.936l4.484 4.627 4.483-4.627h7.79l-8.384 7.932 8.384 7.93h-7.79L93.74 54.16 89.256 58.8h-7.801l8.384-7.931-8.384-7.932h7.801zm-.432 7.932l-9.119-8.627h9.85l4.185 4.32 4.185-4.32h9.497v-.011h16.097c3.681-.038 6.796 3.023 6.746 6.695a6.441 6.441 0 0 1-1.079 3.622 6.674 6.674 0 0 1-2.049 2.009l3.433 4.382v-2.842c0-2.227 1.673-3.646 3.598-4.587 1.944-.95 4.396-1.545 6.439-2.025h.003l.023-.007c1.259-.307 2.331-.57 3.094-.852.387-.144.64-.273.785-.383l.046-.038c-.044-.04-.135-.1-.313-.17-.415-.161-1.124-.283-2.198-.284-1.147.012-2.123.105-2.789.337-.327.115-.526.245-.637.367a.563.563 0 0 0-.146.426l.017.712h-7.673v-.695c0-1.427.282-2.62.845-3.597.566-.982 1.391-1.699 2.396-2.213 1.973-1.008 4.691-1.259 7.723-1.259 3.103 0 5.679.356 7.504 1.273.923.465 1.673 1.083 2.189 1.887.517.806.77 1.755.77 2.835 0 1.996-1.211 3.268-2.697 4.097-1.442.805-3.257 1.262-4.765 1.628h7.201v5.922h-20.999l.009.012h-8.411l-3.009-3.871h-4.521v3.87h-7.305l.013.013h-9.838l-4.184-4.33-4.185 4.33h-9.85l9.12-8.626zm18.598 8.304V42.563l-8.778 8.305 8.778 8.304zm12.498-4.256l3.009 3.87h6.635l-3.485-4.449a5.964 5.964 0 0 0 2.521-2.172c.643-.967.964-2.053.964-3.245.048-3.28-2.747-6.03-6.041-5.995h-15.401v15.862h6.231v-3.871h5.567zm21.197-.673c.218-.265.613-.49 1.138-.695.619-.24 1.415-.452 2.31-.662 3.068-.744 6.981-1.759 6.981-5.063 0-3.872-3.615-5.3-9.763-5.3-5.782 0-9.882.937-10.238 5.679a9.147 9.147 0 0 0-.026.695h6.256a.999.999 0 0 1 0-.078c.034-1.41 1.991-1.74 4.269-1.764 2.223 0 3.246.496 3.246 1.169 0 .83-1.973 1.313-4.451 1.919l-.067.016c-4.115.968-9.503 2.314-9.503 5.937v2.68h20.015v-4.533h-10.167zm3.48-5.985c-.001 0-.004-.005-.006-.015.006.01.007.014.006.015zm-21.976.662a.658.658 0 0 0-.668-.662h-6.899v1.313h6.899c.201 0 .342-.061.468-.186a.608.608 0 0 0 .2-.465zm.7 0c0-.755-.607-1.357-1.368-1.357h-7.6v2.703h7.6c.38 0 .702-.13.964-.39a1.3 1.3 0 0 0 .404-.956z" fill="#938E8A"/><path d="M82.032 70.242h2.984V66.18l2.99 4.063H89.5l2.99-4.063v4.063h2.985v-7.617h-3.73l-2.991 3.809-2.985-3.81h-3.736v7.618zM101.762 62.438c-2.882.006-5.24.833-5.229 3.718v.555c-.011 2.88 2.347 3.713 5.229 3.718 2.876-.005 5.234-.838 5.223-3.718v-.555c0-2.88-2.341-3.718-5.223-3.718zM104 66.524c.017 1.247-1.019 1.474-2.238 1.49-1.225-.016-2.261-.243-2.244-1.49v-.187c-.017-1.241 1.019-1.468 2.244-1.485 1.219.017 2.255.244 2.238 1.485v.187zM115.346 66.445c0 .765-.438 1.394-1.213 1.394h-3.269v-2.788h3.269c.775 0 1.213.623 1.213 1.394zm-7.467-3.809v7.618h6.812c2.102.028 3.663-1.74 3.646-3.809.017-2.08-1.544-3.837-3.646-3.809h-6.812zM126.646 66.53c.018 1.252-1.018 1.468-2.238 1.485-1.224-.017-2.255-.233-2.244-1.485v-3.905h-2.984v4.092c-.012 2.88 2.358 3.707 5.228 3.712 2.871-.005 5.24-.833 5.229-3.712v-4.092h-2.991v3.905zM130.981 62.625v7.617h8.96v-2.414h-5.975v-5.203h-2.985zM140.96 70.254h8.96v-1.956h-5.975v-.975h5.975v-1.762h-5.975v-.975h5.975v-1.95h-8.96v7.618zM83.75 33.606V32h4.424c.214 0 .4.077.553.239a.757.757 0 0 1 .235.567.78.78 0 0 1-.235.568.751.751 0 0 1-.553.232H83.75zm-3.622-4.36v9.42h3.622v-2.298h5.33c1.914.028 3.538-1.62 3.51-3.562.028-1.948-1.596-3.582-3.51-3.56h-8.952zM99.8 29c-3.498.007-6.359 1.03-6.345 4.599v.687c-.014 3.56 2.847 4.591 6.345 4.598 3.49-.007 6.352-1.037 6.338-4.598v-.687c0-3.561-2.841-4.599-6.338-4.599zm2.716 5.054c.021 1.542-1.237 1.823-2.716 1.844-1.486-.021-2.744-.302-2.723-1.844v-.231c-.021-1.535 1.237-1.816 2.723-1.837 1.479.021 2.737.302 2.716 1.837v.231zM120.26 35.21l-2.15-5.965h-4.078l-2.156 5.966-2.151-5.966h-4.077l4.077 9.422h4.307l2.039-4.71 2.039 4.71h4.306l4.079-9.422h-4.079l-2.156 5.966zM126.771 38.667h10.872v-2.419h-7.25v-1.205h7.25v-2.18h-7.25v-1.206h7.25v-2.412h-10.872v9.422zM139.572 29.238v9.422h3.621v-2.3h3.236l1.748 2.3h3.857l-2.025-2.643a3.498 3.498 0 0 0 1.465-1.29c.374-.575.56-1.22.56-1.928.028-1.948-1.597-3.582-3.511-3.56h-8.951zm8.038 2.755c.443 0 .796.358.796.806a.78.78 0 0 1-.236.568.753.753 0 0 1-.56.232h-4.417v-1.606h4.417z" fill="#938E8A"/></svg>