<svg xmlns="http://www.w3.org/2000/svg" width="178" height="100" fill="none"><path d="M61.586 44.26H64.8v13h-3.214v-13zm4.496 8.11c0-3.22 2.002-5.15 5.006-5.15 3.004 0 5.006 1.93 5.006 5.15 0 3.22-1.932 5.17-5.006 5.17-3.074 0-5.006-1.88-5.006-5.17zm6.828 0c0-1.77-.69-2.81-1.792-2.81s-1.782 1-1.782 2.81.68 2.8 1.782 2.8c1.101 0 1.812-.99 1.812-2.79l-.02-.01zm4.466 5.56h3.103a1.66 1.66 0 0 0 1.743 1c1.231 0 1.872-.66 1.872-1.64v-1.8h.01a3.072 3.072 0 0 1-3.004 1.75c-2.353 0-3.915-1.79-3.915-4.87s1.492-5 4.005-5a3.077 3.077 0 0 1 3.004 1.89h-.09v-1.81h3.184v9.74c0 2.35-2.083 3.82-5.147 3.82-2.783-.01-4.565-1.28-4.745-3.07l-.02-.01zm6.728-5.56c0-1.57-.72-2.56-1.862-2.56-1.142 0-1.843 1-1.843 2.56s.691 2.48 1.843 2.48c1.151 0 1.862-.85 1.862-2.48zm4.456 0c0-3.22 2.002-5.15 5.006-5.15 3.003 0 5.006 1.93 5.006 5.15 0 3.22-1.943 5.17-5.006 5.17-3.064 0-4.987-1.88-4.987-5.17h-.02zm6.828 0c0-1.77-.701-2.81-1.792-2.81-1.092 0-1.782 1-1.782 2.81s.68 2.8 1.782 2.8c1.101 0 1.812-.99 1.812-2.79l-.02-.01zm4.485-7.29a1.641 1.641 0 1 1 1.642 1.57 1.589 1.589 0 0 1-1.137-.441 1.583 1.583 0 0 1-.484-1.119l-.02-.01zm0 2.36h3.254v9.86h-3.203l-.05-9.86zm14.959 4.93c0 3.21-1.442 5.07-3.895 5.07a3.077 3.077 0 0 1-3.004-1.83h-.06v4.86h-3.214v-13h3.194v1.76h.06a3.094 3.094 0 0 1 3.004-1.9c2.523-.02 3.975 1.83 3.975 5.05l-.06-.01zm-3.274 0c0-1.56-.731-2.57-1.862-2.57-1.132 0-1.843 1-1.853 2.57-.01 1.57.721 2.56 1.853 2.56 1.131 0 1.922-.93 1.922-2.55l-.06-.01zm8.761-5.16c2.693 0 4.365 1.27 4.385 3.31h-2.934c0-.71-.59-1.15-1.471-1.15-.881 0-1.302.34-1.302.85s.371.67 1.111.82l2.063.42c2.002.42 2.803 1.22 2.803 2.71 0 2-1.852 3.36-4.605 3.36-2.754 0-4.546-1.32-4.676-3.33h3.114c.09.73.671 1.16 1.612 1.16.941 0 1.382-.3 1.382-.83s-.301-.62-1.072-.78l-1.862-.39c-1.932-.41-2.944-1.42-2.944-2.93.06-1.96 1.742-3.21 4.456-3.21l-.06-.01zm15.419 10.08h-3.114v-1.85h-.06a2.82 2.82 0 0 1-2.874 2.05 3.434 3.434 0 0 1-3.534-3.71v-6.33h3.214v5.64c0 1.16.611 1.79 1.612 1.79a1.646 1.646 0 0 0 1.235-.573 1.635 1.635 0 0 0 .377-1.307v-5.55h3.204l-.06 9.84zm1.552-9.85h3.124v1.9h.07a2.856 2.856 0 0 1 2.813-2.08 2.557 2.557 0 0 1 2.743 2.09h.141a3 3 0 0 1 3.003-2.09 3.128 3.128 0 0 1 3.058 2.059c.149.413.209.853.176 1.291v6.69h-3.234v-5.87c0-1-.47-1.56-1.381-1.56a1.407 1.407 0 0 0-1.072.47 1.406 1.406 0 0 0-.34 1.12v5.84h-3.064v-5.9c0-1-.49-1.53-1.372-1.53a1.436 1.436 0 0 0-1.081.48 1.435 1.435 0 0 0-.35 1.13v5.82h-3.214l-.02-9.86zM55.228 45.11c0-1.99-.601-3.934-1.726-5.577a9.904 9.904 0 0 0-15.455-1.103H25.552v26.34h26.382V52.46a9.872 9.872 0 0 0 3.294-7.35zm-5.076 0a4.815 4.815 0 0 1-2.972 4.46 4.832 4.832 0 0 1-5.263-1.038 4.818 4.818 0 0 1 3.409-8.232 4.83 4.83 0 0 1 3.409 1.408 4.817 4.817 0 0 1 1.417 3.402zM46.858 59.7h-16.23V43.5h4.946a9.531 9.531 0 0 0-.15 1.61 9.893 9.893 0 0 0 2.903 6.99 9.919 9.919 0 0 0 6.999 2.9 9.695 9.695 0 0 0 1.532-.13v4.83z" fill="#938E8A"/></svg>