<svg xmlns="http://www.w3.org/2000/svg" width="178" height="100" fill="none"><path d="M126.509 36.352c.39-1.624-.404-3.14-1.23-4.368-.91-1.353-2.431-2.552-4.129-2.984.307 1.533 1.205 2.855 2.07 4.099.859 1.235 1.942 2.486 3.289 3.253zM53.508 31.982c-.828 1.228-1.623 2.743-1.234 4.367 1.347-.765 2.432-2.016 3.292-3.25.865-1.243 1.765-2.565 2.073-4.097-1.698.43-3.22 1.628-4.13 2.98z" fill="#938E8A"/><path d="M51.089 39.465a8.667 8.667 0 0 0 .008-3.901c-.255-1.06-.625-2.56-1.843-3.065-.885 1.412-1.241 3.335-.725 4.776.373 1.042 1.044 2.42 2.436 2.634 1.276.292 2.568-.385 3.587-.944 1.134-.622 2.245-1.611 2.92-2.787-1.238-.621-2.648-.117-3.709.366-1.143.521-2.193 1.639-2.674 2.921zM75.87 34.242v6.459h-2.218v-2.345h-3.326v2.345h-2.218v-6.459h2.218v2.354h3.326v-2.354h2.217zM83.222 34.242h2.45l-3.476 4.328v2.131h-2.225v-2.123l-3.434-4.336h2.523l2.052 2.584 2.11-2.584z" fill="#938E8A"/><path fill-rule="evenodd" clip-rule="evenodd" d="M94.08 36.57c0-.847-.247-1.43-.686-1.776-.422-.37-1.1-.552-1.994-.552h-5.039v6.459h2.226v-1.81s2.548.008 2.846 0c.96-.008 1.696-.239 2.143-.749.331-.362.505-.88.505-1.571zm-2.233.034c0 .205-.033.354-.1.469-.132.205-.405.312-.868.312H88.57v-1.58h2.325c.43 0 .695.1.836.305.075.099.116.28.116.494z" fill="#938E8A"/><path d="M101.809 39.097V40.7h-6.842v-6.459h6.785v1.613h-4.601v.831h4.468v1.571h-4.468v.84h4.658z" fill="#938E8A"/><path fill-rule="evenodd" clip-rule="evenodd" d="M110.555 36.209c0-.584-.14-1.004-.438-1.308-.389-.412-1.059-.659-2.085-.659h-5.171v6.459h2.209v-2.279h2.011l1.613 2.279h2.465l-1.961-2.633c.439-.066.795-.329 1.026-.642.207-.288.331-.715.331-1.217zm-2.151.205a.691.691 0 0 1-.074.338c-.083.164-.298.23-.654.23h-2.598v-1.176h2.557c.348 0 .579.057.695.271.058.082.074.214.074.337z" fill="#938E8A"/><path d="M100.624 48.802c0-1.477-.943-2.252-3.143-2.49a74.481 74.481 0 0 0-2.07-.204c-1.701-.184-2.21-.28-2.21-.712 0-.388.4-.57 1.928-.57 1.084 0 1.691.204 1.93.517.119.15.162.269.173.387h3.121a2.956 2.956 0 0 0-.314-.948c-.564-1.077-1.918-1.94-4.834-1.94-3.284 0-5.082 1.154-5.082 2.662 0 1.455 1.018 2.306 3.77 2.554.319.027 1.008.092 1.562.144h.008l.295.029c1.441.15 1.832.247 1.832.7 0 .42-.38.647-1.973.647-1.235 0-1.961-.184-2.222-.496a1.056 1.056 0 0 1-.205-.453h-3.122c.033.216.087.56.206.84.531 1.186 1.919 2.091 5.137 2.091 3.457 0 5.213-.97 5.213-2.758z" fill="#938E8A"/><path fill-rule="evenodd" clip-rule="evenodd" d="M78.986 49.039c0 .582-.163 1.153-.488 1.53-.499.603-1.43.862-2.634.862h-7.553v-8.46h7.347c1.17 0 1.919.28 2.33.701.369.367.531.852.531 1.401 0 .55-.13 1.002-.411 1.336-.228.28-.618.496-1.03.55.607.075 1.181.377 1.507.797.27.313.4.787.4 1.283zm-3.653-2.964a.725.725 0 0 0 .174-.495c0-.205-.065-.378-.206-.496-.152-.14-.434-.194-.845-.194H71.15v1.38h3.381c.369 0 .65-.055.802-.195zm-.487 3.438c.509 0 .813-.065.986-.226.108-.108.152-.27.152-.474 0-.216-.054-.378-.185-.507-.162-.14-.444-.205-.92-.205H71.15v1.412h3.696z" fill="#938E8A"/><path d="M89.19 49.33v2.101h-8.962v-8.46h8.886v2.113H83.09v1.088h5.852v2.059h-5.852v1.099h6.101zM111.17 42.972v2.123h-3.599v6.336h-2.968v-6.336h-3.587v-2.123h10.154zM110.912 58.885v.032h-.478l-.034-.458c-.146.232-.454.51-1.106.51-1.101 0-1.613-.66-1.613-2.345 0-1.303.326-2.351 1.67-2.351 1.166 0 1.521.758 1.538 1.575h-.582c-.017-.533-.257-1.025-.944-1.025-.826 0-1.066.492-1.066 1.818 0 1.384.298 1.818 1.078 1.818.548 0 .867-.3.973-.66v-.862h-1.177v-.527h1.735v1.331c0 .479.005.996.006 1.138v.006z" fill="#938E8A"/><path fill-rule="evenodd" clip-rule="evenodd" d="M70.052 57.764h-1.63l-.35 1.153h-.612l1.444-4.586h.752l1.35 4.586h-.617l-.337-1.153zm-1.474-.515h1.328s-.542-1.864-.547-1.893l-.03-.136-.064-.304-.099.44c-.011.04-.588 1.893-.588 1.893z" fill="#938E8A"/><path d="M75.426 54.33h.56l-1.09 4.587h-.693s-.774-3.567-.774-3.718c-.006.151-.798 3.718-.798 3.718h-.693L70.85 54.33h.63s.844 3.63.844 3.775c0-.145.774-3.775.774-3.775h.693s.774 3.636.774 3.775c0-.139.862-3.775.862-3.775z" fill="#938E8A"/><path fill-rule="evenodd" clip-rule="evenodd" d="M76.746 57.764h1.63l.338 1.153h.618L77.98 54.33h-.751l-1.445 4.586h.612l.35-1.153zm1.485-.515h-1.328s.577-1.853.588-1.893l.1-.44.049.231.044.209c.005.029.547 1.893.547 1.893zM81.575 54.33c.71 0 1.095.33 1.095 1.292 0 .817-.309 1.089-.629 1.181l.885 2.114h-.64l-.821-1.998h-1.118v1.998h-.583V54.33h1.811zm-.087 2.068c.46 0 .57-.237.57-.759 0-.59-.174-.77-.6-.77h-1.106v1.529h1.136zM86.233 58.401c.233-.33.314-.77.314-1.852 0-.979-.07-1.396-.303-1.732-.21-.312-.664-.486-1.246-.486h-1.543v4.586h1.584c.594 0 .96-.197 1.194-.516zm-.513-.324c-.151.203-.448.296-.803.296h-.874V54.88h.862c.355 0 .658.093.815.307.169.249.21.637.21 1.36 0 .863-.047 1.31-.21 1.53z" fill="#938E8A"/><path d="M92.69 54.33h.56l-1.09 4.587h-.692s-.775-3.567-.775-3.718c-.005.151-.797 3.718-.797 3.718h-.693l-1.09-4.586h.63s.844 3.63.844 3.775c0-.145.775-3.775.775-3.775h.693s.774 3.636.774 3.775c0-.139.862-3.775.862-3.775zM94.28 58.917V54.33h-.606v4.586h.605zM98.07 54.33v4.587h-.67l-1.717-3.556v3.556h-.565V54.33h.705l1.677 3.503v-3.503h.57zM101.846 58.917V54.33h-.57v3.503l-1.677-3.503h-.705v4.586h.565V55.36l1.717 3.556h.67zM103.275 54.33v4.587h-.605V54.33h.605zM107.066 58.917V54.33h-.57v3.503l-1.677-3.503h-.705v4.586h.565V55.36l1.718 3.556h.669zM74.977 67.955l-.668-2.042-.667 2.042h-2.16l1.748 1.263-.668 2.042 1.747-1.262 1.747 1.262-.667-2.042 1.747-1.263h-2.16zM82.013 65.913l.68 2.043h2.204l-1.783 1.262.681 2.042-1.782-1.262-1.783 1.262.68-2.042-1.782-1.262h2.204l.68-2.043zM90.336 67.956l-.68-2.043-.681 2.043H86.77l1.783 1.262-.681 2.042 1.782-1.262 1.783 1.262-.68-2.042 1.782-1.262h-2.204zM97.298 65.913l.681 2.043h2.204L98.4 69.218l.681 2.042-1.783-1.262-1.782 1.262.68-2.042-1.782-1.262h2.203l.681-2.043zM105.669 67.956l-.667-2.043-.668 2.043h-2.159l1.747 1.262-.667 2.042 1.747-1.262 1.747 1.262-.668-2.042 1.748-1.262h-2.16zM50.174 45.048c-1.417.034-2.389-1.159-3.017-2.111-.828-1.256-.992-3.153-.477-4.703 1.306.269 2.038 1.616 2.563 2.612a8.435 8.435 0 0 1 .944 3.752c.162-1.307.918-2.58 1.9-3.276.941-.666 2.203-1.373 3.52-.991-.36 1.242-1.212 2.391-2.155 3.177-.877.73-1.99 1.604-3.278 1.54z" fill="#938E8A"/><path d="M50.593 50.179c-1.315.219-2.598-.582-3.43-1.524-1.073-1.214-1.711-2.841-1.581-4.47 1.35.034 2.374 1.195 3.13 2.073a8.696 8.696 0 0 1 1.802 3.473c-.141-1.28.29-2.66 1.092-3.514.774-.823 1.858-1.721 3.206-1.577-.029 1.297-.682 2.532-1.357 3.458-.628.862-1.596 1.929-2.862 2.08z" fill="#938E8A"/><path d="M52.387 55.461c-1.544.587-3.012-.189-4.223-.973-1.506-.974-2.627-2.87-2.91-4.696 1.486-.183 2.961.792 3.985 1.718 1.127 1.02 2.19 2.122 2.917 3.484-.492-1.324-.369-2.828.272-4.091.613-1.209 1.767-2.199 3.158-2.322.242 1.35-.108 2.77-.632 4.004-.495 1.163-1.3 2.43-2.567 2.876z" fill="#938E8A"/><path d="M55.506 60.399c1.192-.709 1.672-2.2 1.867-3.477.212-1.377.203-2.896-.373-4.203-1.382.384-2.331 1.621-2.645 2.977a5.411 5.411 0 0 0 .754 4.177c-1.07-1.221-2.494-2.23-3.858-2.937-1.318-.683-2.934-1.507-4.517-1.01.763 1.853 2.396 3.577 4.205 4.29 1.4.552 3.105 1.098 4.567.183z" fill="#938E8A"/><path d="M60.288 64.918c1.038-1.024 1.043-2.71.868-4.04-.197-1.493-.636-3.066-1.575-4.291-1.344.682-1.97 2.214-1.93 3.645.042 1.6.92 3.188 2.124 4.27-1.51-1.066-3.313-1.846-5.006-2.33l-.086-.025c-1.517-.434-3.39-.97-4.922-.132 1.254 1.877 3.594 3.287 5.673 3.678 1.549.29 3.556.545 4.854-.775z" fill="#938E8A"/><path d="M67.18 68.682c.765-1.447.008-3.145-.596-4.4-.713-1.484-1.688-2.997-3.084-4.083-1.34 1.148-1.212 2.791-.814 4.219.474 1.698 2.116 3.145 3.816 3.97a22.032 22.032 0 0 0-6.166-1.299l-.207-.013c-1.644-.106-3.784-.245-5.094.951 1.98 1.675 4.794 2.64 7.273 2.59 1.662-.033 3.942-.229 4.873-1.935zM125.019 36.545c1.143.522 2.193 1.641 2.672 2.925a8.686 8.686 0 0 1-.004-3.903c.255-1.06.627-2.559 1.846-3.064.884 1.413 1.238 3.337.72 4.777-.374 1.042-1.047 2.42-2.439 2.632-1.277.291-2.567-.387-3.586-.947-1.133-.622-2.243-1.612-2.916-2.788 1.237-.62 2.646-.115 3.707.368z" fill="#938E8A"/><path d="M126.691 41.324c.981.696 1.734 1.969 1.896 3.275a8.447 8.447 0 0 1 .948-3.749c.526-.996 1.26-2.342 2.566-2.61.513 1.55.347 3.447-.483 4.703-.627.95-1.599 2.141-3.012 2.11-1.291.065-2.405-.812-3.282-1.543-.943-.787-1.794-1.936-2.152-3.18 1.317-.38 2.578.328 3.519.994z" fill="#938E8A"/><path d="M127.166 46.22c.803.855 1.233 2.24 1.09 3.52a8.678 8.678 0 0 1 1.806-3.477c.757-.878 1.781-2.038 3.132-2.071.128 1.63-.512 3.257-1.585 4.469-.834.942-2.119 1.743-3.434 1.521-1.265-.154-2.231-1.22-2.859-2.083-.674-.926-1.326-2.162-1.354-3.459 1.349-.143 2.432.756 3.204 1.58z" fill="#938E8A"/><path d="M126.341 50.905c.639 1.264.761 2.768.267 4.092.728-1.362 1.793-2.464 2.921-3.482 1.024-.925 2.501-1.9 3.986-1.715-.283 1.826-1.407 3.72-2.913 4.694-1.211.782-2.678 1.556-4.22.971-1.268-.444-2.074-1.715-2.568-2.88-.524-1.233-.873-2.655-.629-4.004 1.391.124 2.544 1.115 3.156 2.324z" fill="#938E8A"/><path d="M124.409 55.697a5.418 5.418 0 0 1-.756 4.174c1.071-1.22 2.495-2.226 3.858-2.932 1.319-.682 2.936-1.504 4.518-1.006-.765 1.852-2.399 3.575-4.209 4.287-1.403.552-3.111 1.097-4.575.175-1.184-.711-1.661-2.199-1.856-3.474-.209-1.378-.199-2.897.377-4.203 1.383.385 2.331 1.623 2.643 2.979z" fill="#938E8A"/><path d="M117.603 60.874c-.176 1.33-.173 3.016.865 4.04 1.295 1.322 3.303 1.068 4.852.779 2.079-.389 4.421-1.797 5.677-3.674-1.531-.84-3.405-.304-4.922.129l-.087.024c-1.693.483-3.497 1.262-5.007 2.326 1.205-1.081 2.083-2.668 2.127-4.267.041-1.432-.583-2.964-1.926-3.647-.941 1.224-1.381 2.797-1.579 4.29z" fill="#938E8A"/><path d="M111.571 68.674c.929 1.706 3.209 1.904 4.87 1.938 2.48.053 5.294-.912 7.276-2.584-1.308-1.197-3.448-1.06-5.093-.955l-.208.013a22.039 22.039 0 0 0-6.167 1.293c1.701-.823 3.344-2.269 3.82-3.966.399-1.428.529-3.07-.81-4.22-1.396 1.085-2.373 2.597-3.088 4.08-.601 1.248-1.355 2.935-.613 4.377l.013.024z" fill="#938E8A"/></svg>