<svg xmlns="http://www.w3.org/2000/svg" width="178" height="100" fill="none"><path d="M75.973 40.621v-2.37h-1.325v2.252c0 .403-.376.674-1.009.674-.662 0-1.023-.261-1.023-.679v-2.247h-1.34v2.247c0 1.17.964 1.667 2.309 1.667 1.439 0 2.388-.502 2.388-1.544zM80.435 42.11v-1.027h-2.363v-2.832h-1.34v3.86h3.703zM84.417 39.22v-.969h-4.633v.969h1.637v2.89h1.355v-2.89h1.641zM86.199 42.11v-3.859h-1.36v3.86h1.36zM92.436 42.11v-3.859H90.76l-1.058 2.316-1.008-2.316h-1.73v3.86h1.26v-2.085l.91 2.085h1.127l.92-2.085v2.085h1.255zM94.537 41.398h2.096l.341.713h1.429l-1.958-3.86h-1.597l-2.072 3.86h1.4l.36-.713zm1.676-.866h-1.241l.49-.929.147-.354.139.35.465.934zM102.605 39.22v-.969h-4.632v.969h1.636v2.89h1.355v-2.89h1.641zM107.111 42.11v-.958h-2.783v-.502h2.669v-.938h-2.669v-.497h2.749v-.964h-4.054v3.86h4.088zM81.38 44.162H80.1s-.836 2.429-.836 2.488c0-.059-.781-2.488-.781-2.488h-1.39s-.776 2.429-.776 2.488c0-.059-.84-2.488-.84-2.488h-1.439l1.454 3.86h1.448s.782-2.306.787-2.37c.004.064.78 2.37.78 2.37h1.454l1.42-3.86zM83.132 48.022v-3.86h-1.36v3.86h1.36zM88.421 48.022v-3.86h-1.266v2.1l-1.863-2.1h-1.395v3.86h1.276v-2.149l1.923 2.149h1.325zM93.718 48.022v-3.86h-1.266v2.1l-1.864-2.1h-1.394v3.86h1.276v-2.149l1.923 2.149h1.325zM98.58 48.022v-.959h-2.784v-.502h2.67v-.938h-2.67v-.497h2.749v-.964H94.49v3.86h4.088zM103.806 45.337c0-.349-.084-.6-.262-.781-.233-.246-.633-.394-1.246-.394h-3.09v3.86h1.32V46.66h1.202l.964 1.362h1.473l-1.171-1.574a.949.949 0 0 0 .612-.383c.124-.172.198-.428.198-.728zm-1.285.123a.41.41 0 0 1-.045.202c-.05.098-.178.138-.39.138h-1.553v-.704h1.527c.209 0 .347.035.416.163.035.049.045.127.045.201zM76.53 51.819v-1.886h-.463v1.856c0 .438-.414.687-1.011.687-.706 0-1.053-.267-1.053-.69v-1.853h-.467v1.837c0 .773.605 1.114 1.5 1.114.927 0 1.494-.364 1.494-1.065zM79.852 52.847v-.427h-2.02v-2.487h-.467v2.914h2.487zM82.503 50.356v-.423H79.39v.423h1.321v2.491h.47v-2.491h1.322zM85.822 50.757a.863.863 0 0 0-.124-.483c-.138-.204-.403-.341-.843-.341h-1.897v2.914h.46v-1.229h1.336l.817 1.229h.538l-.885-1.307a.647.647 0 0 0 .493-.315.925.925 0 0 0 .105-.468zm-.463.037a.607.607 0 0 1-.052.249c-.06.107-.198.163-.422.167H83.42v-.861H84.8c.28 0 .429.066.507.193.034.059.053.16.053.252zM87.15 52.127h1.826l.373.72h.5l-1.486-2.914h-.548l-1.535 2.914h.49l.38-.72zm1.632-.412h-1.43l.593-1.118.131-.27.13.27.576 1.118zM94.584 52.569c.116-.134.168-.323.168-.528 0-.193-.056-.386-.171-.505a.868.868 0 0 0-.508-.222.454.454 0 0 0 .276-.171c.101-.115.16-.3.16-.486a.676.676 0 0 0-.186-.498c-.138-.137-.373-.226-.702-.226H91.65v2.914h2.117c.395 0 .672-.1.817-.278zm-.556-1.82a.43.43 0 0 1-.112.312c-.07.078-.19.112-.317.112h-1.494v-.84h1.408c.172 0 .302.034.392.116a.41.41 0 0 1 .123.3zm.15 1.537c-.094.104-.254.156-.49.156h-1.583v-.865H93.7c.216 0 .365.045.455.13a.385.385 0 0 1 .116.294c0 .118-.026.219-.094.285zM98.142 52.847v-.427h-2.278v-.831h2.188v-.424h-2.188v-.809h2.251v-.423H95.41v2.914h2.733zM101.789 51.986c0-.475-.317-.72-1.097-.81-.131-.018-.415-.048-.568-.066-.724-.086-.945-.182-.945-.431 0-.241.243-.379.975-.379.567 0 .858.112 1.004.312a.45.45 0 0 1 .075.175h.5a1.066 1.066 0 0 0-.101-.301c-.201-.345-.615-.594-1.478-.594-1.03-.004-1.456.367-1.456.828 0 .46.332.694 1.194.794.15.019.415.048.545.063.669.082.878.182.878.46 0 .257-.239.443-1.005.443-.627 0-.963-.112-1.097-.327a.473.473 0 0 1-.071-.215h-.493a.964.964 0 0 0 .116.393c.194.353.65.557 1.531.557 1.052 0 1.493-.338 1.493-.902zM105.137 50.356v-.423h-3.114v.423h1.322v2.491h.47v-2.491h1.322zM72.215 55.38c0-.297-.06-.498-.161-.65-.142-.219-.418-.334-.9-.334h-1.852v2.914h.463v-.95h1.37c.452-.004.762-.108.926-.345.105-.145.153-.353.153-.635zm-.47 0c0 .148-.016.26-.064.334-.086.137-.262.223-.624.223h-1.292v-1.125h1.307c.34 0 .515.078.609.23.044.067.063.19.063.338zM75.594 57.31v-.427h-2.278v-.831h2.188v-.423h-2.188v-.81h2.251v-.423h-2.706v2.914h2.733zM79.155 55.22a.863.863 0 0 0-.123-.482c-.138-.205-.403-.342-.844-.342h-1.896v2.914h.459v-1.228h1.336l.818 1.228h.538l-.885-1.306a.647.647 0 0 0 .493-.316.925.925 0 0 0 .104-.468zm-.463.037a.606.606 0 0 1-.052.25c-.06.107-.198.163-.422.166h-1.464v-.861h1.378c.28 0 .43.067.508.193.034.06.052.16.052.252zM82.616 54.82v-.424H80.01v2.914h.463v-1.24h2.046v-.434h-2.046v-.817h2.143zM84.741 54.344c-.623 0-1.053.152-1.359.472-.257.248-.37.594-.37 1.028 0 .475.146.832.415 1.073.287.286.728.434 1.314.434.605 0 1.075-.148 1.355-.449.243-.245.37-.594.37-1.062 0-.453-.108-.798-.366-1.043-.295-.304-.735-.453-1.359-.453zm0 2.591c-.41 0-.702-.089-.922-.267-.224-.182-.332-.46-.332-.817 0-.334.093-.612.272-.78.206-.192.52-.307.978-.307.475 0 .77.111.99.304.186.163.269.453.269.78 0 .33-.086.612-.277.783-.22.204-.53.304-.978.304zM89.969 55.22a.863.863 0 0 0-.123-.482c-.139-.205-.404-.342-.844-.342h-1.897v2.914h.46v-1.228H88.9l.818 1.228h.537l-.885-1.306a.647.647 0 0 0 .493-.316.925.925 0 0 0 .105-.468zm-.463.037a.607.607 0 0 1-.052.25c-.06.107-.198.163-.422.166h-1.464v-.861h1.378c.28 0 .43.067.508.193.033.06.052.16.052.252zM94.434 57.31v-2.914h-.605l-1.205 2.398-1.184-2.398h-.616v2.914h.444v-2.242l1.106 2.242h.485l1.131-2.242v2.242h.444zM95.745 56.59h1.826l.373.72h.5l-1.485-2.914h-.55l-1.534 2.914h.49l.38-.72zm1.632-.412h-1.43l.594-1.117.13-.271.13.27.576 1.118zM101.808 57.31v-2.914h-.445v2.265l-1.94-2.265h-.527v2.914h.452v-2.279l1.956 2.28h.504zM105.836 56.223h-.486a.648.648 0 0 1-.161.367c-.201.234-.522.334-1.015.334-.414 0-.859-.115-1.072-.416-.111-.14-.183-.348-.183-.66 0-.279.049-.487.157-.628.179-.285.556-.434 1.087-.434.515 0 .84.141 1.012.338a.65.65 0 0 1 .171.371h.486a1.136 1.136 0 0 0-.179-.52c-.24-.352-.68-.63-1.487-.63-.768 0-1.228.244-1.482.612-.164.211-.247.508-.247.887 0 .423.102.735.277.954.254.345.743.553 1.482.553.759 0 1.21-.226 1.434-.586.127-.175.19-.383.206-.542zM109.176 57.31v-.427h-2.277v-.831h2.188v-.423h-2.188v-.81h2.251v-.423h-2.707v2.914h2.733zM75.033 60.205l.559 1.71h1.806l-1.461 1.055.558 1.709-1.462-1.056-1.462 1.056.559-1.709-1.462-1.056h1.807l.558-1.709zM81.48 60.206l.569 1.708h1.844L82.4 62.97l.57 1.71-1.492-1.057-1.491 1.056.57-1.709-1.492-1.056h1.843l.57-1.709zM87.874 60.206l.57 1.708h1.843l-1.491 1.056.57 1.71-1.492-1.057-1.492 1.056.57-1.709-1.492-1.056h1.844l.57-1.709zM94.269 60.206l.57 1.708h1.844L95.19 62.97l.57 1.71-1.492-1.057-1.492 1.056.57-1.709-1.491-1.056h1.843l.57-1.709zM100.715 60.206l.558 1.708h1.807l-1.462 1.056.558 1.71-1.461-1.057-1.462 1.056.558-1.709-1.462-1.056h1.807l.559-1.709zM78.165 31.376l.422 1.292h1.367l-1.106.799.422 1.292-1.105-.799-1.105.799.422-1.292-1.105-.799h1.366l.422-1.292zM83.039 31.374l.43 1.292h1.395l-1.128.799.43 1.292-1.127-.799-1.128.799.43-1.292-1.127-.799h1.394l.43-1.292zM87.874 31.374l.43 1.292h1.394l-1.127.799.43 1.292-1.127-.799-1.128.799.43-1.292-1.127-.799h1.394l.43-1.292zM92.71 31.374l.43 1.292h1.394l-1.128.799.431 1.292-1.128-.799-1.127.799.43-1.292-1.127-.799h1.394l.43-1.292zM97.582 31.374l.422 1.292h1.367l-1.105.799.422 1.292-1.106-.799-1.105.799.422-1.292-1.105-.799h1.366l.422-1.292z" fill="#938E8A"/><path fill-rule="evenodd" clip-rule="evenodd" d="M58.706 54.63c-1.863-11.59 3.575-23.058 14.46-27.983l.1.22c-10.776 4.875-16.168 16.23-14.32 27.725C60.99 67.31 71.307 74.937 83.942 75.304l-.007.242c-12.733-.371-23.164-8.067-25.229-20.916z" fill="#938E8A"/><path d="M70.806 29.605c-2.012.046-4.366 1.174-5.756 2.812 1.115 1.029 2.907.649 4.197.438 1.841-.3 3.799-.882 5.536-1.705-.714-1.512-2.639-1.575-3.977-1.545z" fill="#938E8A"/><path d="M69.224 27.138a36.002 36.002 0 0 1-4.157 5.295c-1.293-1.207-.513-3.215.015-4.464.956-2.263 3.248-4.215 5.644-5.213.657 1.488-.771 3.249-1.502 4.382zM64.984 34.78c-1.883.666-3.502 2.54-4.314 4.422 1.354.627 2.894-.278 4.02-.88 1.547-.827 3.125-1.968 4.367-3.288-1.122-1.177-2.826-.694-4.073-.253z" fill="#938E8A"/><path d="M62.701 32.937a28.614 28.614 0 0 1-2.011 6.275c-1.585-.743-1.525-2.872-1.457-4.227.116-2.312 1.417-4.948 3.228-6.624 1.109 1.182.503 3.235.24 4.576zM61.36 41.462c-1.57 1.232-2.52 3.513-2.741 5.55 1.485.17 2.672-1.173 3.555-2.095 1.202-1.255 2.34-2.83 3.063-4.476-1.416-.768-2.854.22-3.877 1.021z" fill="#938E8A"/><path d="M58.64 40.423a25.98 25.98 0 0 1 .001 6.593c-1.726-.211-2.299-2.273-2.637-3.566-.584-2.233-.193-5.116.945-7.286 1.422.782 1.513 2.9 1.692 4.26zM60.129 48.756c-1.242 1.81-1.68 4.644-1.12 6.923 1.64-.386 2.454-2.234 3.107-3.539.868-1.734 1.602-3.758 1.865-5.743-1.78-.368-3.034 1.167-3.852 2.359z" fill="#938E8A"/><path d="M56.868 48.573a32.946 32.946 0 0 1 2.165 7.1c-1.882.403-3.237-1.563-4.024-2.866-1.401-2.32-1.81-5.536-1.296-8.31 1.722.343 2.566 2.72 3.155 4.076zM60.997 56.627c-.667 2.195-.203 5.178 1.147 7.241 1.484-.96 1.69-3.074 1.9-4.59.277-2 .407-4.217.063-6.291-1.898.24-2.664 2.174-3.11 3.64z" fill="#938E8A"/><path d="M57.7 57.567c1.664 1.9 3.2 4.065 4.467 6.287-1.718 1.067-3.734-.39-4.956-1.421-2.17-1.83-3.578-4.938-3.912-7.868 1.805-.241 3.396 1.855 4.4 3.002zM64.496 64.097c.144 2.554 1.816 5.235 4.043 6.76 1.075-1.464.401-3.707.034-5.273-.493-2.108-1.177-4.304-2.193-6.252-1.771.931-1.978 3.082-1.884 4.765z" fill="#938E8A"/><path d="M61.501 66.254a61.87 61.87 0 0 1 7.056 4.58c-1.34 1.755-4.017 1.055-5.677.491-2.925-.993-5.533-3.612-6.895-6.522 1.727-.884 4.091.664 5.516 1.451zM71.368 70.337c1.448 2.628 4.748 4.343 7.855 4.755.335-1.91-1.744-3.802-2.877-5.04-1.613-1.76-3.293-3.589-5.177-5.112-1.412 1.63-.666 3.829.199 5.397z" fill="#938E8A"/><path d="M69.3 73.668c3.291.34 6.639.83 9.928 1.395-.314 2.41-4.16 2.8-5.907 2.942-3.58.291-7.563-1.14-10.337-3.55 1.378-1.611 4.562-.968 6.316-.787zM75.64 24.624c-2.21.627-4.797 1.816-6.075 4.012 2.32-.252 4.6-1.072 6.829-1.698 2.497-.7 5.127-1.224 7.544-2.191-2.647-1.053-5.769-.84-8.298-.123z" fill="#938E8A"/><path fill-rule="evenodd" clip-rule="evenodd" d="M118.393 54.592c1.848-11.495-3.545-22.85-14.32-27.725l.1-.22c10.885 4.925 16.323 16.392 14.459 27.983-2.064 12.849-12.495 20.545-25.228 20.916l-.007-.242c12.635-.367 22.952-7.994 24.996-20.712z" fill="#938E8A"/><path d="M106.534 29.605c2.011.046 4.365 1.174 5.755 2.812-1.114 1.029-2.907.649-4.197.438-1.841-.3-3.799-.882-5.536-1.705.714-1.512 2.638-1.575 3.978-1.545z" fill="#938E8A"/><path d="M108.115 27.138a36.057 36.057 0 0 0 4.157 5.295c1.293-1.207.513-3.215-.015-4.464-.956-2.263-3.248-4.215-5.644-5.213-.658 1.488.771 3.249 1.502 4.382zM112.355 34.78c1.884.666 3.502 2.54 4.314 4.422-1.354.627-2.894-.278-4.02-.88-1.547-.827-3.125-1.968-4.366-3.288 1.122-1.177 2.825-.694 4.072-.253z" fill="#938E8A"/><path d="M114.638 32.937a28.596 28.596 0 0 0 2.011 6.275c1.585-.743 1.525-2.872 1.457-4.227-.116-2.312-1.416-4.948-3.228-6.624-1.109 1.182-.502 3.235-.24 4.576zM115.979 41.462c1.569 1.232 2.521 3.513 2.741 5.55-1.484.17-2.671-1.173-3.554-2.095-1.203-1.255-2.341-2.83-3.063-4.476 1.415-.768 2.854.22 3.876 1.021z" fill="#938E8A"/><path d="M118.699 40.423a25.929 25.929 0 0 0-.001 6.593c1.727-.211 2.3-2.273 2.638-3.566.584-2.233.192-5.116-.946-7.286-1.422.782-1.513 2.9-1.691 4.26zM117.21 48.756c1.242 1.81 1.679 4.644 1.121 6.923-1.641-.386-2.455-2.234-3.109-3.539-.868-1.734-1.602-3.758-1.864-5.743 1.78-.368 3.035 1.167 3.852 2.359z" fill="#938E8A"/><path d="M120.471 48.573a32.878 32.878 0 0 0-2.164 7.1c1.881.403 3.236-1.563 4.023-2.866 1.401-2.32 1.809-5.536 1.297-8.31-1.723.343-2.567 2.72-3.156 4.076zM116.342 56.627c.666 2.195.204 5.178-1.147 7.241-1.483-.96-1.689-3.074-1.9-4.59-.276-2-.407-4.217-.063-6.291 1.898.24 2.664 2.174 3.11 3.64z" fill="#938E8A"/><path d="M119.639 57.567a38.962 38.962 0 0 0-4.467 6.287c1.718 1.067 3.734-.39 4.957-1.421 2.168-1.83 3.577-4.938 3.911-7.868-1.805-.241-3.396 1.855-4.401 3.002zM112.842 64.097c-.143 2.554-1.815 5.235-4.042 6.76-1.076-1.464-.401-3.707-.035-5.273.494-2.108 1.178-4.304 2.193-6.252 1.772.931 1.978 3.082 1.884 4.765z" fill="#938E8A"/><path d="M115.838 66.254a61.86 61.86 0 0 0-7.055 4.58c1.34 1.755 4.017 1.055 5.676.491 2.925-.993 5.533-3.612 6.895-6.522-1.727-.884-4.091.664-5.516 1.451zM105.971 70.337c-1.448 2.628-4.747 4.343-7.855 4.755-.335-1.91 1.744-3.802 2.877-5.04 1.612-1.76 3.293-3.589 5.177-5.112 1.412 1.63.665 3.829-.199 5.397z" fill="#938E8A"/><path d="M108.039 73.668c-3.292.34-6.638.83-9.929 1.395.314 2.41 4.162 2.8 5.907 2.942 3.581.291 7.565-1.14 10.337-3.55-1.376-1.611-4.561-.968-6.315-.787zM101.699 24.624c2.21.627 4.797 1.816 6.074 4.012-2.319-.252-4.598-1.072-6.828-1.698-2.497-.7-5.127-1.224-7.544-2.191 2.648-1.053 5.769-.84 8.298-.123zM90.107 23.488L88.973 21l-1.113 2.442-2.587-1.596 1.662 3.475h4.135l1.603-3.475-2.566 1.642zM91.044 25.86h-4.142v.608h4.142v-.607zM89.269 72.872l.667 2.042h2.16l-1.747 1.262.667 2.042-1.747-1.262-1.747 1.262.667-2.042-1.747-1.262h2.16l.667-2.042z" fill="#938E8A"/></svg>