<svg xmlns="http://www.w3.org/2000/svg" viewBox="0 0 100 100" style="enable-background:new 0 0 100 100" xml:space="preserve"><path d="M1.4 92.5c3.5-7.3 6.9-14.6 10.4-21.8 4.6-9.6 9.1-19.2 13.7-28.8.1-.3.3-.6.5-.9.4-.6 1-.9 1.7-.6.8.3 1 .9.8 1.7-.1.4-.3.7-.4 1-2.5 5.2-4.9 10.4-7.4 15.6-.6 1.3-.3 2.5-.1 3.8 1.1 6.6 4.6 11.9 9.2 16.6.8.8 1.6 1.5 2.4 2.2.2.2.7.3 1 .2l20.7-9.6c.1 0 .1-.1.2-.2-3.6-8.3-7.2-16.6-10.9-25-.3.3-.6.5-.9.8-1.2 1.2-2.4 2.5-3.7 3.7-1.8 1.8-4.3 1.8-6 .2-1.7-1.7-1.6-4.2.2-6l5.1-5.1c1.2-1.2 1.4-2.1.7-3.8-1.1-2.6-2.3-5.1-3.5-7.8-1.1 2.4-2.2 4.7-3.3 7-.1.3-.3.6-.5.9-.5.6-1.1.7-1.8.3-.6-.4-.9-.9-.6-1.6.2-.6.5-1.2.8-1.7l4.5-9.6c.2-.4.4-.9.4-1.3 1-6.5 7.5-11.6 14.5-9.2.1 0 .1 0 0 0 1.2-1.1 2.1-2.3 3.4-3.2 3.7-2.6 7.6-2.8 11.6-.8.7.3 1 .3 1.5-.3 4-4 9.9-5.1 15-3 .3.1.9.1 1.2-.1 5-2.9 10.1-2.6 15.2-.4 2.2.9 2.2 3.8.1 5.1-2.8 1.8-4.4 4.4-5 7.6-.5 2.4-.2 4.8.1 7.2.5 3.6 1.2 7.1 1.4 10.7.4 6.4-2.1 11.6-7 15.6-1.6 1.4-2.8 2.8-3.4 4.9-1 3.5-3.6 5.8-6.8 7.3-4.5 2.1-9 4.4-13.6 6.5C49.2 77 35.6 83.4 22.1 89.8c-1 .5-1.8.3-2.2-.5-.4-.8 0-1.6 1-2 2.9-1.4 5.8-2.7 8.8-4.1-5.6-5.1-9.8-11-11.7-18.6l-.4.8C13.3 74.5 9 83.5 4.7 92.6c0 .1-.1.1-.1.2-.3.5-.4 1.1.1 1.4.4.2 1 .2 1.4.1 2.7-1.2 5.4-2.5 8.2-3.8 1.4-.7 2.2-.5 2.6.3.4.9 0 1.6-1.4 2.2-2.5 1.2-5 2.3-7.4 3.5-3.2 1.5-5 .9-6.5-2.2-.2-.7-.2-1.3-.2-1.8zM78.8 8.6c-.3-.1-.4-.2-.5-.2-4.5-1.2-8.2 0-11.3 3.3-3 3.2-3.4 7.2-2.7 11.3.9 4.9 2.8 9.6 4.6 14.2 2.1 5.5 4.5 10.9 5.8 16.7.5 2.4.8 4.8 1.2 7.4.7-.6 1.6-1.1 2.3-1.8 2.5-2.4 3.2-5.5 3.3-8.8.1-3.5-.5-6.9-1.4-10.2-.9-3.6-2-7.2-3-10.8-.3-1 .1-1.8.9-2 .8-.2 1.6.1 1.8 1.1 1.3 4.9 2.7 9.8 3.9 14.7.5 2.1.6 4.3.9 6.5.1 0 .2-.1.2-.1 3.3-2.8 5.7-6.3 6-10.8.2-2.3 0-4.7-.3-7-.4-3-1.1-6-1.4-9.1-.5-5.9 1.1-10.9 6.2-14.4.1-.1.3-.2.6-.5-1.3-.4-2.4-.8-3.6-1-6-1-11.7.8-13.2 8.1-.5 2.3-.3 4.8-.5 7.1 0 .5-.2 1.2-.6 1.6-.9.8-2.1 0-2.2-1.4-.7-4.9-.1-9.7 3-13.9zM63 12.2c-1.9-1.2-4.2-1.5-6.3-1-3.1.7-5.9 3.9-6.1 6.4-.3 3.4 0 6.7.7 10 1.2 5.1 3.5 9.8 6 14.3 2.7 4.9 5.2 9.8 6.8 15.2.1.3.4.6.7.7 2 .9 4 1.8 5.9 2.7.6.3 1.2.5 2.1.9-.2-1.7-.2-3.1-.4-4.5-.8-4.7-2.5-9-4.2-13.4-2.1-5.6-4.2-11.2-6-16.9-1.5-4.8-2-9.7.8-14.4zm-15.1 3.9c-2-.7-3.9-.6-5.8.3-4.3 2-6.2 7.3-4.3 11.8 1 2.4 2.1 4.8 3.2 7.2 1.1 2.5.7 4.7-1.2 6.7L34.9 47c-1 1-1.2 1.7-.5 2.3.6.6 1.3.5 2.3-.5l3.8-3.8c1.9-1.9 4.2-1.5 5.2 1 .5 1.2 1 2.3 1.5 3.5.2.4.6.9 1.1 1.1 3.8 1.8 7.7 3.5 11.5 5.2.2.1.4.2.8.3-.2-.7-.4-1.2-.6-1.7-2.2-4.5-4.4-9.1-6.7-13.5-3.9-7.9-6.6-15.8-5.4-24.8zm8.6 54.4c4.7-2.3 9.3-4.6 14-6.9-7.1-3.2-14-6.3-21.2-9.6 2.5 5.7 4.8 11 7.2 16.5z" style="fill:#ff9300"/></svg>