<svg version="1.1" id="Layer_1" xmlns="http://www.w3.org/2000/svg" x="0" y="0" viewBox="0 0 100 100" style="enable-background:new 0 0 100 100" xml:space="preserve"><style>.st0{fill:#ff9300}</style><g id="OR5DeK.tif"><path class="st0" d="M4.4 98.7c-.8-.3-1.1-.9-1.1-1.7V68.9c0-.6.2-1.2.6-1.7C18.5 49 33.1 30.9 47.6 12.8c.8-1 1.1-1 2.2-.5 1.7.8 3.4 1.6 5.2 2.4.2.1.7.1.8 0 2.2-1.9 4.7-3.1 7.6-3.6-.3-2.6.3-5 1.8-7.1.6-.8 1.2-1.5 1.9-2.2.7-.7 1.5-.7 1.9-.2.5.6.3 1.2-.5 2-1.8 1.7-2.9 3.7-3 6.2 0 .8.2 1.2 1.1 1.2 5.9.4 10.8 5.6 11.2 11.8 0 .7.3 1.1.9 1.3 5.4 2.3 10.8 4.7 16.3 7 1 .4 1.4 1 1.4 2.1v29.3c0 1-.4 1.5-1.3 1.8-2.3.8-4.7 1.7-7 2.7-.3.1-.7.5-.7.8.1 2-1.3 3.6-2.7 3.9-1.9.5-3.3-.2-4.5-1.8-3.8 1.4-7.6 2.9-11.4 4.3-21.1 8-42.3 16-63.4 24-.3.1-.6.3-.8.4.1.1 0 .1-.2.1zm65-37.1c-.4.2-.7.3-1.1.4-11.3 4.4-22.7 8.9-34 13.3-1.3.5-1.9.4-2.2-.4-.3-.8.1-1.3 1.4-1.8 11.7-4.6 23.4-9.1 35.1-13.7.6-.2.9-.5.9-1.2V47.5c0-1.8-1-2.5-2.7-1.8-20 7.7-40.1 15.4-60.1 23.1-.8.2-1 .6-1 1.2v12.8c0 .3 0 .6.1 1 .4-.1.7-.2 1-.4 5.8-2.3 11.6-4.5 17.4-6.8.2-.1.5-.2.7-.3.7-.2 1.2 0 1.5.6.3.7 0 1.2-.7 1.5-.2.1-.5.2-.7.3L6.4 85.9c-.6.2-.8.5-.8 1.1v7.7c0 .2 0 .5.1.8.4-.2.8-.3 1.2-.4 8-3 15.9-6 23.9-9C47 80.2 63.1 74.1 79.3 68c.6-.2.8-.5.8-1.2v-9.5c-1.1.4-2.1.8-3.1 1.2v2.4c-.1 2.3-2.1 4-4.2 3.7-1.9-.2-2.9-1.3-3.4-3zm23.9-28.7c-5.3-2.3-10.4-4.5-15.6-6.7-.7 2.3-1.7 4.3-3.5 5.8-3.5 3.1-7.7 3.8-12.2 3.1-6.5-1-10.9-7.3-9.7-13.7.3-1.6 1-3.1 1.5-4.7-1.5-.7-3-1.4-4.6-2.2-13.6 17-27.2 33.9-41 51.1l1.2-.4C28.2 58 47 50.7 65.9 43.5c3.1-1.2 5.8.6 5.8 4v13.3c0 1 .6 1.6 1.5 1.6.8 0 1.4-.6 1.4-1.5v-5c.1-2.2 1.7-3.8 3.9-3.8 2.1 0 3.9 1.6 3.9 3.7v11.6c0 .4 0 .7.1 1.1.2.7.7 1.1 1.5 1.1.8-.1 1.2-.5 1.3-1.3V40.4c0-3 1.4-5.1 4.2-6.2 1.2-.3 2.4-.8 3.8-1.3zM67.6 13.6c-.5.6-.8 1.3-1.3 1.5-.7.3-1.2-.3-1.5-.9-.1-.1-.1-.2-.2-.2-.2-.5-.6-.6-1.1-.5-2 .4-3.9 1.2-5.5 2.5-2.8 2.3-4.1 5.2-3.5 8.8.6 3.7 2.6 6.3 6.1 7.6 2.5.9 5.2 1 7.8.2 4.6-1.3 7.5-5.3 7.2-9.7-.3-4.7-3.9-8.8-8-9.3zm26.6 21.6h-.3c-1.2.4-2.4.9-3.5 1.3-2 .8-2.8 2-2.8 4.1v10.3c0 .3 0 .6.1 1 2-.8 3.8-1.5 5.7-2.2.7-.2.9-.6.9-1.3V36c0-.3 0-.6-.1-.8zm-6.6 29.6c2-.8 3.9-1.5 5.8-2.2.6-.2.8-.5.8-1.2v-8.8c0-.2-.1-.5-.1-.8-2.1.8-4.1 1.6-6.1 2.4-.2.1-.4.4-.4.6v10zm-10.7-8.7c1-.4 1.8-.7 2.7-1.1-1.2-1-2.3-.6-2.7 1.1z"/><path class="st0" d="M74 43.7c-.8 0-1.3-.5-1.4-1.3 0-.8.6-1.4 1.3-1.4.7 0 1.4.6 1.4 1.3.1.7-.5 1.4-1.3 1.4zM68.8 37.8c0 .8-.6 1.3-1.3 1.3-.7 0-1.4-.6-1.3-1.4 0-.7.6-1.4 1.4-1.3.7.1 1.2.7 1.2 1.4zM74.5 51.8c-.7 0-1.4-.5-1.4-1.3 0-.7.6-1.4 1.3-1.4.7 0 1.4.6 1.4 1.3 0 .7-.6 1.3-1.3 1.4zM27.9 51.4c0 .8-.6 1.3-1.3 1.3-.7 0-1.3-.6-1.3-1.4 0-.7.6-1.4 1.4-1.4.6.2 1.2.8 1.2 1.5zM41.9 46.1c.8 0 1.3.6 1.3 1.3 0 .7-.6 1.4-1.3 1.4-.7 0-1.3-.6-1.3-1.4 0-.7.6-1.3 1.3-1.3zM53.1 35.3c0 .7-.6 1.4-1.4 1.3-.7 0-1.3-.6-1.3-1.4 0-.7.6-1.3 1.4-1.3.7 0 1.3.6 1.3 1.4zM45.2 28.9c-.8 0-1.3-.6-1.3-1.4 0-.7.6-1.3 1.4-1.3.7 0 1.3.7 1.3 1.4 0 .8-.6 1.3-1.4 1.3zM44.2 39.4c0 .8-.6 1.3-1.3 1.3-.8 0-1.3-.6-1.3-1.4 0-.7.6-1.4 1.3-1.3.8 0 1.4.7 1.3 1.4zM80.1 36.8c0 .7-.5 1.4-1.3 1.4-.7 0-1.4-.6-1.4-1.3 0-.7.6-1.4 1.3-1.4.7 0 1.3.6 1.4 1.3zM35.2 43.7c0 .7-.6 1.3-1.4 1.4-.8 0-1.3-.6-1.3-1.3 0-.8.6-1.3 1.3-1.3.8-.1 1.4.5 1.4 1.2zM60.2 41.9c0 .7-.6 1.4-1.3 1.4-.8 0-1.3-.5-1.4-1.3 0-.7.6-1.4 1.3-1.4.7 0 1.4.6 1.4 1.3zM80.1 42.2c.8 0 1.4.5 1.4 1.3s-.5 1.4-1.3 1.4c-.7 0-1.4-.6-1.4-1.3-.1-.7.5-1.4 1.3-1.4zM81.8 33.1c-.7 0-1.3-.7-1.3-1.4s.6-1.3 1.4-1.3c.8 0 1.3.6 1.3 1.4 0 .7-.6 1.3-1.4 1.3zM55.7 22.4c.1-1.9.8-3.4 2.1-4.7.6-.6 1.4-.7 1.9-.2.6.6.4 1.2-.2 1.8-1.3 1.2-1.7 2.7-1.2 4.4.2.7.1 1.3-.7 1.6-.8.3-1.3-.2-1.5-.9-.2-.7-.3-1.3-.4-2z"/></g></svg>