<svg version="1.1" id="Layer_1" xmlns="http://www.w3.org/2000/svg" x="0" y="0" viewBox="0 0 100 100" style="enable-background:new 0 0 100 100" xml:space="preserve"><style>.st0{fill:#ff9300}</style><g id="HzHIAe.tif"><path class="st0" d="M46.7 93.3c-1.9-.1-3.8-.2-5.7-.4-6.9-.6-13.7-1.7-20.1-4.5-11.4-5-17.6-13.7-19.1-26C1 56.1 1.3 49.9 3 43.8c2.6-9.6 8.8-16.1 17.9-19.8 5.3-2.2 10.9-3.2 16.6-3.8 6.4-.6 12.8-.8 19.2-.4 8.1.5 16 2 23.4 5.6 10.6 5.3 16.6 13.8 18 25.6.7 6 .4 12-1.4 17.9-2.9 9.4-9.2 15.7-18.1 19.5-6.3 2.7-13 3.9-19.7 4.4-1.9.1-3.7.3-5.6.4-2.3.1-4.5.1-6.6.1zM95 54.9c-.1-1-.1-1.8-.2-2.6C93.7 41 88.1 33 77.9 28.2c-7.3-3.5-15.1-4.8-23.1-5-5.4-.2-10.9 0-16.3.4-5.5.3-10.9 1.4-16 3.4-6.2 2.4-11 6.4-14.1 12.4-2.7 5.4-3.7 11.1-3.7 17.1 0 .1.1.2.1.3 3.8.3 4.6 1.2 5.1 5 .2 1.3.9 2.2 2.1 2.7 1.3.5 1.9.1 2-1.3.3-3.9 3.8-6.8 7.7-6.3 4.3.6 7.3 4 7.3 8.3v6.7c0 2.3 1.8 4.1 4 4.1s3.8-1.7 3.9-4.1v-2.3c.1-1.2 0-2.4.3-3.6.7-2.9 3.6-4.8 6.5-4.5 3.1.4 5.4 2.9 5.5 5.9v5.3c0 2.1 1.6 3.7 3.6 3.7 1.9-.1 3.4-1.6 3.4-3.7v-4c0-1.4.4-2.7 1.2-4 1.8-2.8 5.3-4.2 8.6-3.4 3.3.8 5.7 3.8 5.8 7.2 0 .8.2 1.7.9 1.8 1 .2 2.2.3 3.2 0 .9-.2.9-1.3.9-2.2 0-2.5-.1-5.1.1-7.6.2-2.6 2.3-4.5 4.9-4.7 2.4-.1 4.7 1.6 5.2 4 .2 1 .2 2.1.2 3.1 0 .6.1 1.2.9 1.2s.9-.6.9-1.2v-4.1c0-2.6 1.7-4.2 4.2-4.2.6.3 1.1.3 1.8.3zM4.9 60.3c.1 1 .2 2 .4 3 1.3 8.7 5.5 15.6 13.2 20.1 6.7 3.9 14 5.4 21.6 6.1 5.6.5 11.3.6 16.9.2 5.8-.4 11.6-1.2 17.1-3.1 10.8-3.6 18.1-10.5 20.2-22 .4-2.1.6-4.2.8-6.4H94c-1.6 0-1.6 0-1.6 1.7 0 1.4.1 2.8-.1 4.2-.2 2.2-2.1 3.8-4.2 3.7-2.2-.1-3.9-1.7-4.1-4-.1-.8 0-1.6 0-2.5-.1-1.2-.9-1.9-1.9-1.9-1 0-1.7.8-1.8 2v7.4c0 3.2-2.1 5.3-5.3 5.3-4.1.1-5.9-1.5-6.3-5.5-.3-2.5-2.2-4.2-4.7-4.1-2.5.1-4.2 1.9-4.3 4.5v3.6c0 2-.6 3.8-2.1 5.1-2.1 2-4.5 2.6-7.2 1.5S46.2 76 46 73.1c-.1-1.8 0-3.6 0-5.4 0-1.7-1.3-3-3-2.9-1.6.1-2.7 1.2-2.7 2.9v4.4c-.2 4.8-4.8 8.2-9.3 6.8-3.1-1-5.2-3.8-5.2-7.3v-6.5c0-2.3-1.3-4.1-3.2-4.8-2.7-1-5 .5-5.2 3.4-.2 2.6-2.4 4.5-5 4.1-3.3-.5-5.5-2.9-5.7-6.3-.1-1.2-.3-1.4-1.8-1.2zM98.8 16.8c-.6.5-1.1 1.1-1.8 1.4-3.2 1.3-5.4 3.5-6.6 6.7-.3.9-.8 1.8-2 1.8s-1.5-1-2-1.8c-.2-.3-.4-.6-.5-.9-1-2.6-2.8-4.3-5.3-5.3-.5-.2-.9-.5-1.4-.8-1.5-.9-1.5-2.4 0-3.2 1.4-.8 2.9-1.6 4.3-2.4.4-.2.7-.6.9-.9.9-1.5 1.6-2.9 2.4-4.4.4-.7.8-1.1 1.6-1.1s1.3.4 1.6 1.1c.9 1.6 1.5 3.6 2.8 4.8 1.3 1.3 3.2 1.9 4.8 2.8.4.3.8.7 1.2 1v1.2zm-10.5 4.9c.8-1.3 1.2-2.6 2.1-3.4.8-.8 2.1-1.3 3.2-2-1.2-.7-2.4-1.2-3.2-2-.8-.8-1.3-2.1-2-3.4-.8 2.8-2.6 4.4-5 5.5 2.4.9 4.1 2.5 4.9 5.3zM12.1 7.9c2.9 0 5.2 2.3 5.2 5.2 0 2.9-2.3 5.1-5.1 5.2C9.3 18.3 7 16 7 13.2c-.1-3 2.2-5.3 5.1-5.3zm1.8 5.1c0-1-.9-1.9-1.9-1.9-1 0-1.8.8-1.8 1.8s.8 1.9 1.8 1.9c1.1.1 1.9-.8 1.9-1.8z"/><path class="st0" d="M49.8 55.7c-4.1-.2-8.1-.9-11.7-2.9-1.3-.7-2.5-1.7-3.5-2.8-2.3-2.6-2.3-5.9-.2-8.6 1.7-2.1 3.9-3.3 6.3-4.2 4.1-1.5 8.3-1.8 12.6-1.3 1.6.2 2.3.8 2.2 1.9-.1 1.1-1 1.6-2.5 1.4-3.7-.4-7.3-.2-10.8 1-1.6.6-3.2 1.5-4.6 2.6-2.1 1.7-2 3.8 0 5.6 1.8 1.7 4.1 2.5 6.4 3.1 5.2 1.1 10.4 1 15.3-1.3 1.3-.6 2.4-1.6 3.5-2.6 1-1 1.1-2.3.5-3.6-.5-1.1-.2-2 .6-2.4.9-.4 1.8-.1 2.3 1 1.3 2.5.9 5.4-1.3 7.7s-5 3.6-8.1 4.3c-2.2.6-4.7.8-7 1.1zM76.9 38.5c-.1.5-.3 1.4-.6 2.3-.3.8-1.2 1.1-2 .9-.8-.3-1.4-1.1-1.1-1.9.7-2.3-.2-3.9-1.7-5.4-.3-.3-.5-.6-.7-.9-.3-.7 0-1.4.6-1.8.6-.5 1.3-.5 1.9 0 2.2 1.5 3.4 3.7 3.6 6.8zM72.9 52.2c1.5.1 2.8-.7 3.3-2.3.3-.8.7-1.3 1.5-1.4 1.2-.1 2 1 1.7 2.2-.7 2.7-3.7 4.9-6.5 4.7-.2 0-.4 0-.6-.1-1.2-.3-1.7-.9-1.6-1.9.2-.7 1.1-1.3 2.2-1.2zM19.3 35.8c.9 0 1.4.4 1.6 1.2.2.8 0 1.5-.8 1.8-1.9.7-2.8 2.1-3.2 4-.2.8-1 1.4-1.8 1.3-.8-.1-1.4-.6-1.5-1.5-.3-2.6 2.6-6.3 5.1-6.8h.6zM51.8 28c0 1.6-1.3 2.4-2.4 1.8-1.3-.8-2.4-.7-3.7 0-1 .5-1.9.2-2.4-.6-.4-.9-.1-1.8.8-2.3 2.2-1.2 4.5-1.4 6.7 0 .4.3.7.9 1 1.1zM12.3 54.9c-1.1-.4-2.1-.7-3-1.2-1-.6-1.2-1.8-.5-2.6.6-.8 1.6-.8 2.6-.1.6.5 1.3.4 1.9-.1 1-.7 1.9-.7 2.5.1.6.8.5 1.9-.5 2.5-.9.6-1.9.9-3 1.4zM83.7 36.8c.2.2.8.4 1.1.8.9 1.2 1.8 2.5 2.6 3.8.6.9.4 1.9-.4 2.4s-1.7.3-2.3-.5L82 39.4c-.7-1.1.1-2.6 1.7-2.6zM22.9 46c0-1.2.5-1.8 1.3-2 .8-.2 1.6.1 1.9.9.5 1.7 1 3.4 1.4 5.1.2.8-.4 1.5-1.1 1.8-.8.2-1.6 0-1.9-.8-.8-1.7-1.2-3.5-1.6-5zM33.1 26.7c1.5 0 2.3 1.1 1.9 2.2-.6 1.6-1.2 3.1-1.9 4.6-.4.8-1.3 1.1-2.1.7-.8-.4-1.2-1.2-.9-2 .6-1.5 1.2-3.1 1.9-4.5.2-.5.8-.8 1.1-1zM65.1 31.6c-.2.9-.6 1.5-1.4 1.7-.8.2-1.5-.1-1.8-.8-.6-1.2-1.1-2.5-1.5-3.8-.2-.8.2-1.4.9-1.8.7-.4 1.5-.3 1.9.4.8 1.4 1.3 2.9 1.9 4.3z"/><path class="st0" d="M61.5 39.6c0 .9-.7 1.7-1.7 1.7-.9 0-1.6-.7-1.6-1.6 0-.9.7-1.6 1.6-1.7.9-.1 1.7.7 1.7 1.6z"/></g></svg>